<svg width="58" height="20" viewBox="0 0 58 20" fill="none" xmlns="http://www.w3.org/2000/svg">
<path d="M0 3.81836H4.69639C7.55755 3.81836 9.21779 5.01928 9.21779 7.08573C9.21779 8.63973 8.29914 9.52193 6.88678 9.8219C8.52828 10.0302 9.65837 10.8999 9.65837 12.6654C9.65837 14.8203 7.96375 16.1796 4.92657 16.1796H0V3.81836ZM2.64868 5.90148V8.90429H4.77034C5.90043 8.90429 6.57223 8.32102 6.57223 7.4034C6.57223 6.48579 5.91813 5.90252 4.77034 5.90252L2.64868 5.90148ZM2.64868 10.952V14.0767H4.94011C6.21081 14.0767 6.93574 13.4944 6.93574 12.5404C6.93574 11.5342 6.1931 10.952 4.94011 10.952H2.64868Z" fill="#535861"/>
<path d="M16.5822 7.10352H19.0725V16.1797H16.8655L16.6353 15.085C16.0531 15.7912 15.2583 16.2859 13.9689 16.2859C12.0941 16.2859 10.3672 15.3485 10.3672 12.1353V7.10352H12.8565V11.7999C12.8565 13.4247 13.3867 14.2194 14.622 14.2194C15.8572 14.2194 16.5822 13.3185 16.5822 11.6416V7.10352Z" fill="#535861"/>
<path d="M20.082 4.73761C20.082 3.9252 20.7174 3.32422 21.5298 3.32422C22.3422 3.32422 22.9776 3.9252 22.9776 4.73761C22.9776 5.53232 22.3422 6.13226 21.5298 6.13226C20.7174 6.13226 20.082 5.53232 20.082 4.73761ZM20.2768 7.10403H22.7838V16.1802H20.2768V7.10403Z" fill="#535861"/>
<path d="M23.9648 3.81836H26.4552V16.1796H23.9659L23.9648 3.81836Z" fill="#535861"/>
<path d="M34.2407 3.81836H36.731V16.1796H34.5584L34.3115 14.9297C33.7105 15.7067 32.8283 16.29 31.5212 16.29C29.0839 16.29 27.3008 14.5058 27.3008 11.628C27.3008 8.81576 29.0839 7.00136 31.5035 7.00136C32.7533 7.00136 33.6585 7.4961 34.2407 8.23769V3.81836ZM34.2761 11.6644C34.2761 10.1104 33.4283 9.03344 32.069 9.03344C30.7098 9.03344 29.8443 10.0927 29.8443 11.6467C29.8443 13.2007 30.7088 14.26 32.069 14.26C33.4293 14.26 34.2761 13.1955 34.2761 11.6644Z" fill="#535861"/>
<path d="M37.7383 4.73761C37.7383 3.9252 38.3736 3.32422 39.186 3.32422C39.9985 3.32422 40.6338 3.9252 40.6338 4.73761C40.6338 5.53232 39.9985 6.13226 39.186 6.13226C38.3736 6.13226 37.7383 5.53232 37.7383 4.73761ZM37.932 7.10403H40.4401V16.1802H37.932V7.10403Z" fill="#535861"/>
<path d="M41.1289 7.10343H42.6298V6.43163C42.6298 4.75472 43.5307 3.81836 45.367 3.81836H47.398V5.93585H45.8086C45.3139 5.93585 45.067 6.16499 45.067 6.67744V7.10135H47.398V9.20426H45.1202V16.1827H42.6298V9.20426H41.1289V7.10343Z" fill="#535861"/>
<path d="M47.7852 7.10352H50.4338L52.6409 13.5664L54.7948 7.10872H57.4612L53.4356 17.4743C52.87 18.9752 52.4118 19.7168 50.9984 19.7168H48.5788V17.6097H49.9568C50.5922 17.6097 50.8046 17.4514 51.0515 16.8327L51.2806 16.2328L47.7852 7.10352Z" fill="#535861"/>
</svg>
