<svg width="40" height="40" viewBox="0 0 40 40" fill="none" xmlns="http://www.w3.org/2000/svg">
<rect x="0.5" y="0.5" width="39" height="39" rx="7.5" fill="white"/>
<path d="M16.9116 28.67C16.7216 28.67 16.5316 28.6 16.3816 28.45C16.0916 28.16 16.0916 27.68 16.3816 27.39L22.9016 20.87C23.3816 20.39 23.3816 19.61 22.9016 19.13L16.3816 12.61C16.0916 12.32 16.0916 11.84 16.3816 11.55C16.6716 11.26 17.1516 11.26 17.4416 11.55L23.9616 18.07C24.4716 18.58 24.7616 19.27 24.7616 20C24.7616 20.73 24.4816 21.42 23.9616 21.93L17.4416 28.45C17.2916 28.59 17.1016 28.67 16.9116 28.67Z" fill="#3C3A4A"/>
<rect x="0.5" y="0.5" width="39" height="39" rx="7.5" stroke="#E0DFE5"/>
</svg>
