<svg width="29" height="29" viewBox="0 0 29 29" fill="none" xmlns="http://www.w3.org/2000/svg">
<path d="M19.0187 15.0295C22.2089 15.0295 24.7951 12.4433 24.7951 9.25303C24.7951 6.06278 22.2089 3.47656 19.0187 3.47656C15.8284 3.47656 13.2422 6.06278 13.2422 9.25303C13.2422 12.4433 15.8284 15.0295 19.0187 15.0295Z" stroke="#3B404A" stroke-width="0.8" stroke-linecap="round" stroke-linejoin="round"/>
<path d="M17.5742 12.1417V6.36523H19.7404C20.1234 6.36523 20.4907 6.51738 20.7615 6.78821C21.0324 7.05903 21.1845 7.42635 21.1845 7.80935C21.1845 8.19236 21.0324 8.55967 20.7615 8.8305C20.4907 9.10132 20.1234 9.25347 19.7404 9.25347C20.1234 9.25347 20.4907 9.40562 20.7615 9.67644C21.0324 9.94727 21.1845 10.3146 21.1845 10.6976C21.1845 11.0806 21.0324 11.4479 20.7615 11.7187C20.4907 11.9896 20.1234 12.1417 19.7404 12.1417H17.5742Z" stroke="#3B404A" stroke-width="0.8" stroke-linecap="round" stroke-linejoin="round"/>
<path d="M17.5742 9.25391H19.7404" stroke="#3B404A" stroke-width="0.8" stroke-linecap="round" stroke-linejoin="round"/>
<path d="M19.0195 6.36464V5.64258" stroke="#3B404A" stroke-width="0.8" stroke-linecap="round" stroke-linejoin="round"/>
<path d="M19.0195 12.1406V12.8627" stroke="#3B404A" stroke-width="0.8" stroke-linecap="round" stroke-linejoin="round"/>
<path d="M10.3538 16.4727H8.39657C8.09661 16.4729 7.80607 16.5774 7.57478 16.7684C7.34349 16.9594 7.18587 17.225 7.12895 17.5195C7.07203 17.814 7.11935 18.1191 7.26281 18.3826C7.40627 18.646 7.63692 18.8513 7.9152 18.9633L9.90231 19.7585C10.1806 19.8705 10.4112 20.0758 10.5547 20.3392C10.6982 20.6026 10.7455 20.9078 10.6886 21.2023C10.6316 21.4968 10.474 21.7623 10.2427 21.9533C10.0114 22.1443 9.7209 22.2489 9.42093 22.2491H7.4656" stroke="#3B404A" stroke-width="0.8" stroke-linecap="round" stroke-linejoin="round"/>
<path d="M8.91016 16.474V15.752" stroke="#3B404A" stroke-width="0.8" stroke-linecap="round" stroke-linejoin="round"/>
<path d="M8.91016 22.9721V22.25" stroke="#3B404A" stroke-width="0.8" stroke-linecap="round" stroke-linejoin="round"/>
<path d="M8.90928 25.1389C12.0995 25.1389 14.6858 22.5527 14.6858 19.3624C14.6858 16.1722 12.0995 13.5859 8.90928 13.5859C5.71903 13.5859 3.13281 16.1722 3.13281 19.3624C3.13281 22.5527 5.71903 25.1389 8.90928 25.1389Z" stroke="#3B404A" stroke-width="0.8" stroke-linecap="round" stroke-linejoin="round"/>
<path d="M3.13281 7.08594L5.29899 10.6962L8.90928 8.53006" stroke="#3B404A" stroke-width="0.8" stroke-linecap="round" stroke-linejoin="round"/>
<path d="M9.81254 3.61914C8.47592 4.10655 7.33612 5.01899 6.56797 6.21652C5.79983 7.41404 5.44576 8.8305 5.56009 10.2486" stroke="#3B404A" stroke-width="0.8" stroke-linecap="round" stroke-linejoin="round"/>
<path d="M24.796 21.5283L22.6298 17.918L19.0195 20.0841" stroke="#3B404A" stroke-width="0.8" stroke-linecap="round" stroke-linejoin="round"/>
<path d="M18.1172 24.9967C19.4535 24.5094 20.593 23.5972 21.3611 22.4001C22.1293 21.203 22.4835 19.7869 22.3696 18.3691" stroke="#3B404A" stroke-width="0.8" stroke-linecap="round" stroke-linejoin="round"/>
</svg>
