<svg width="24" height="24" viewBox="0 0 24 24" fill="none" xmlns="http://www.w3.org/2000/svg">
<path d="M2.00391 12.0023C2.00447 14.3836 2.85438 16.6867 4.40087 18.4975C5.94736 20.3083 8.08902 21.5081 10.4409 21.8813V14.8923H7.90391V12.0023H10.4439V9.80232C10.3878 9.28741 10.4458 8.76647 10.6137 8.27649C10.7817 7.78651 11.0554 7.33952 11.4155 6.96726C11.7757 6.59499 12.2134 6.3066 12.6975 6.12255C13.1817 5.9385 13.7004 5.86331 14.2169 5.90232C14.9669 5.91432 15.7169 5.98132 16.4569 6.10232V8.56132H15.1929C14.9781 8.53319 14.7597 8.55369 14.5538 8.62131C14.348 8.68893 14.16 8.80194 14.0037 8.95199C13.8474 9.10204 13.7268 9.2853 13.6509 9.48822C13.5749 9.69114 13.5455 9.90853 13.5649 10.1243V12.0023H16.3359L15.8929 14.8933H13.5649V21.8813C15.4525 21.583 17.2151 20.7501 18.6441 19.4811C20.073 18.2121 21.1084 16.5603 21.6277 14.7211C22.1469 12.882 22.1283 10.9326 21.5741 9.10366C21.0198 7.27475 19.9531 5.64296 18.5003 4.40147C17.0474 3.15998 15.2692 2.36079 13.3763 2.09853C11.4833 1.83626 9.55483 2.1219 7.81916 2.92163C6.08349 3.72135 4.61332 5.00167 3.58271 6.611C2.5521 8.22033 2.00421 10.0913 2.00391 12.0023Z" fill="white"/>
</svg>
