<svg width="29" height="26" viewBox="0 0 29 26" fill="none" xmlns="http://www.w3.org/2000/svg">
<path d="M8.99736 9.51476V9.54575C9.00756 9.5645 9.01938 9.58224 9.03263 9.59895C9.57383 10.5034 10.3356 11.256 11.2466 11.7862C11.2466 11.7862 11.2466 11.8084 11.2776 11.8172H11.3218C13.2153 12.8979 15.5387 12.8979 17.432 11.8172H17.4762C17.4762 11.8172 17.4762 11.7949 17.5072 11.7862C18.4182 11.256 19.18 10.5034 19.7212 9.59895L19.7609 9.54575V9.51476C20.8535 7.61517 20.8535 5.2777 19.7609 3.37795V3.34696C19.7609 3.3382 19.7387 3.34696 19.7299 3.31598V3.31577C19.1936 2.40073 18.4312 1.63832 17.516 1.10203C17.516 1.10203 17.516 1.07981 17.485 1.07553C17.454 1.07105 17.485 1.07553 17.454 1.07553V1.07533C15.5544 -0.0172969 13.217 -0.0172969 11.3172 1.07533H11.2862C11.2775 1.07533 11.2862 1.07533 11.2552 1.10183V1.10203C10.34 1.63832 9.57763 2.40073 9.04128 3.31577C9.04128 3.31577 9.01906 3.31577 9.01478 3.34676C9.0103 3.37774 9.01478 3.36898 9.01478 3.37774V3.37795C7.92216 5.27754 7.92216 7.61501 9.01478 9.51476H8.99736ZM11.3485 2.08483L11.5566 2.44787C11.6787 2.66068 11.9505 2.73407 12.1631 2.61176C12.3759 2.48945 12.4493 2.21794 12.3269 2.00513L12.1143 1.64656C12.6865 1.37423 13.3029 1.2079 13.9343 1.15489V1.57563C13.9343 1.82024 14.1324 2.01837 14.377 2.01837C14.6216 2.01837 14.8197 1.82024 14.8197 1.57563V1.13288C15.4511 1.18567 16.0675 1.35221 16.6397 1.62435L16.4271 2.01837C16.3047 2.23119 16.3781 2.5027 16.5909 2.62501C16.8036 2.74732 17.0753 2.67393 17.1974 2.46112L17.4055 2.09808C17.9218 2.46051 18.3713 2.91001 18.7339 3.42632L18.3709 3.63444C18.1581 3.75675 18.0847 4.02827 18.207 4.24108C18.3293 4.45389 18.6008 4.52727 18.8136 4.40497L19.1722 4.19236C19.4525 4.75986 19.628 5.37344 19.6902 6.00329H19.2474C19.003 6.00329 18.8047 6.20163 18.8047 6.44604C18.8047 6.69065 19.003 6.88879 19.2474 6.88879H19.6902C19.6374 7.52011 19.471 8.13672 19.1987 8.7087L18.8047 8.49609C18.5921 8.37379 18.3203 8.44717 18.198 8.65998C18.0759 8.87279 18.1491 9.14431 18.3619 9.26662L18.725 9.47475C18.3625 9.99108 17.913 10.4406 17.3967 10.803L17.1974 10.431C17.0753 10.2184 16.8035 10.145 16.5909 10.2673C16.3781 10.3896 16.3048 10.6611 16.4271 10.8739L16.6397 11.2325C16.0699 11.5168 15.4533 11.6954 14.8198 11.7594V11.3167C14.8198 11.0721 14.6216 10.8739 14.377 10.8739C14.1324 10.8739 13.9343 11.0721 13.9343 11.3167V11.7594C13.3029 11.7066 12.6865 11.5401 12.1143 11.268L12.327 10.9094V10.9092C12.4493 10.6966 12.3759 10.4249 12.1631 10.3026C11.9505 10.1805 11.6787 10.2536 11.5566 10.4665L11.3485 10.8295C10.8322 10.4671 10.3827 10.0176 10.0201 9.50126L10.3831 9.29313C10.5959 9.17083 10.6693 8.89931 10.547 8.6865C10.4247 8.47389 10.1532 8.4005 9.94036 8.52281L9.5818 8.73542V8.73522C9.30498 8.1553 9.13702 7.52951 9.08585 6.8888H9.50659C9.75099 6.8888 9.94933 6.69066 9.94933 6.44605C9.94933 6.20164 9.75099 6.0033 9.50659 6.0033H9.08585C9.13865 5.37198 9.30519 4.75558 9.57732 4.1836L9.93588 4.3962L9.93608 4.396C10.1487 4.51831 10.4204 4.44492 10.5425 4.23231C10.6648 4.0195 10.5914 3.74799 10.3788 3.62568L10.0158 3.41755C10.379 2.89918 10.8301 2.44829 11.3485 2.08483V2.08483Z" fill="#3B404A"/>
<path d="M14.3764 6.88985H15.7046C15.9492 6.88985 16.1473 6.69171 16.1473 6.4471C16.1473 6.20269 15.9492 6.00435 15.7046 6.00435H14.8191V3.79061C14.8191 3.546 14.621 3.34766 14.3763 3.34766C14.1317 3.34766 13.9336 3.546 13.9336 3.79061V6.44729V6.44708C13.9336 6.5645 13.9803 6.67722 14.0632 6.76019C14.1462 6.84336 14.2589 6.88983 14.3763 6.88983L14.3764 6.88985Z" fill="#3B404A"/>
<path d="M28.0351 17.2816C27.8708 16.9501 27.5937 16.688 27.2539 16.542C26.9141 16.3961 26.5333 16.3757 26.1799 16.4845L17.2183 19.2122C17.0516 19.2613 16.8785 19.2866 16.7047 19.2874H16.5897V18.1805C16.5897 17.5932 16.3563 17.0302 15.9413 16.615C15.526 16.1998 14.9628 15.9666 14.3757 15.9666H10.0942C9.9768 15.9649 9.86469 15.9191 9.77969 15.8382L8.30529 14.3637C8.0564 14.1145 7.71885 13.9744 7.36661 13.974H5.15265H5.15286C4.90764 13.6998 4.55969 13.5394 4.19195 13.5312H1.53527C1.18303 13.5312 0.84524 13.6713 0.596166 13.9204C0.347072 14.1695 0.207031 14.5072 0.207031 14.8597V24.6003C0.207031 24.9528 0.347072 25.2906 0.596166 25.5396C0.84526 25.7887 1.18303 25.9288 1.53527 25.9288H4.19195C4.56742 25.9267 4.92455 25.7659 5.17488 25.486H16.9658C17.3806 25.486 17.7873 25.3694 18.1391 25.1495L27.4685 19.3179C27.8016 19.1119 28.045 18.7877 28.15 18.4102C28.255 18.0329 28.214 17.6297 28.0352 17.2811L28.0351 17.2816ZM4.19175 25.0434H1.53507C1.29066 25.0434 1.09232 24.8452 1.09232 24.6006V14.86C1.09232 14.6154 1.29066 14.4171 1.53507 14.4171H4.19175C4.30917 14.4171 4.42189 14.4637 4.50486 14.5469C4.58782 14.6299 4.6345 14.7426 4.6345 14.86V24.6006C4.6345 24.7181 4.58782 24.8308 4.50486 24.9137C4.42189 24.9969 4.30917 25.0434 4.19175 25.0434ZM26.9987 18.57L17.6698 24.3968C17.4588 24.5293 17.2148 24.6001 16.9657 24.6005H5.52025V14.8598H7.36667H7.36646C7.48367 14.8615 7.59599 14.9073 7.68099 14.9882L9.15539 16.4627C9.40429 16.7117 9.74184 16.852 10.0941 16.8522H14.3756C14.7278 16.8522 15.0658 16.9922 15.3149 17.2413C15.564 17.4904 15.7038 17.8282 15.7038 18.1806V19.2875H12.2104C11.8096 19.2873 11.4164 19.396 11.0725 19.6018L9.27934 20.6777C9.16518 20.7293 9.07814 20.8269 9.04003 20.9462C9.0017 21.0656 9.01597 21.1955 9.07896 21.3037C9.14195 21.4122 9.24774 21.4886 9.37045 21.5145C9.49297 21.5404 9.62077 21.5131 9.72208 21.4393L11.4931 20.3634C11.7094 20.2331 11.9581 20.1671 12.2104 20.173H16.7045C16.9657 20.1728 17.2254 20.1339 17.4751 20.0578L26.4366 17.3304C26.7664 17.2293 27.1203 17.3887 27.2628 17.703C27.4053 18.0173 27.2923 18.3886 26.9988 18.5702L26.9987 18.57Z" fill="#3B404A"/>
</svg>
