<svg width="29" height="28" viewBox="0 0 29 28" fill="none" xmlns="http://www.w3.org/2000/svg">
<g clip-path="url(#clip0_2258_74924)">
<path d="M9.04474 12.1471L9.04372 12.165C8.97474 13.3733 9.65157 14.5052 10.7685 15.0479L10.78 15.0535C11.1737 15.2419 11.4965 15.5524 11.7001 15.9386L11.7047 15.947C12.2675 17.0186 13.4315 17.6682 14.6725 17.603L14.6913 17.602C15.1413 17.5768 15.588 17.6929 15.9688 17.9342C17.0196 18.5914 18.3534 18.5914 19.4042 17.9342C19.785 17.6929 20.2317 17.5768 20.6817 17.602L20.7006 17.603C21.9394 17.6687 23.105 17.0186 23.669 15.9452L23.6718 15.9393C23.8762 15.5522 24.1998 15.2411 24.5948 15.0525L24.604 15.0479C25.7209 14.505 26.398 13.3733 26.3288 12.1647L26.3278 12.1479C26.3049 11.7223 26.423 11.301 26.6643 10.9495C27.3589 9.93642 27.3589 8.60057 26.6645 7.58724C26.4235 7.23597 26.3049 6.81495 26.3278 6.38935L26.3288 6.37153C26.398 5.16296 25.7209 4.03126 24.603 3.48806L24.5928 3.48297C24.1998 3.29512 23.8778 2.9861 23.6739 2.60098L23.668 2.58952C23.105 1.51789 21.9394 0.868552 20.7006 0.933461L20.6815 0.934479C20.2317 0.959679 19.785 0.843607 19.4044 0.602299H19.4039C18.3532 -0.054933 17.0193 -0.054933 15.9686 0.602299C15.5878 0.843352 15.1411 0.959424 14.691 0.934224L14.6722 0.933206C13.4331 0.867534 12.2678 1.51764 11.705 2.58901L11.7007 2.5969C11.4968 2.98381 11.1737 3.29461 10.7795 3.48323L10.7688 3.48832C9.65183 4.031 8.97474 5.16296 9.04398 6.37153L9.04499 6.38833C9.0679 6.81393 8.9498 7.2352 8.70849 7.58647C8.01384 8.59981 8.01384 9.93591 8.70849 10.949C8.94954 11.3003 9.0679 11.7215 9.04474 12.1471V12.1471ZM9.56656 8.17854C9.93895 7.63636 10.1215 6.98626 10.0858 6.32953L10.0848 6.31172C10.0482 5.51092 10.4977 4.76714 11.2234 4.42682L11.2323 4.42249C11.8277 4.1374 12.3151 3.66802 12.6226 3.0841L12.6277 3.07443C13.0016 2.36221 13.7849 1.93051 14.6167 1.9748L14.635 1.97556C15.3007 2.01298 15.9612 1.84142 16.5243 1.48455C17.2352 1.03986 18.1373 1.03986 18.8482 1.48455C19.4113 1.84091 20.0718 2.01273 20.7372 1.97582L20.7555 1.9748C21.5915 1.93102 22.3709 2.36222 22.7438 3.07239L22.7507 3.08537C23.0581 3.66853 23.5451 4.13715 24.1397 4.42198L24.1484 4.42631C24.8855 4.78471 25.333 5.52467 25.2879 6.31197L25.2869 6.33055C25.2513 6.98728 25.4341 7.63713 25.8065 8.1793C26.2565 8.83577 26.2562 9.70122 25.8059 10.3574C25.4338 10.8999 25.2513 11.55 25.2869 12.2067L25.2879 12.2243C25.333 13.0116 24.8855 13.7518 24.1481 14.1104L24.1405 14.114C23.5446 14.3996 23.0566 14.8695 22.7489 15.4544L22.7451 15.4621C22.3709 16.1743 21.5889 16.6062 20.7558 16.5617L20.7377 16.5607C20.0721 16.5235 19.4113 16.6953 18.848 17.0519C18.1373 17.4964 17.2352 17.4964 16.5245 17.0519C16.0124 16.7274 15.4183 16.5553 14.8119 16.5558C14.7531 16.5558 14.6941 16.5574 14.635 16.5607L14.6167 16.5614C13.7958 16.6136 13.0192 16.1839 12.6269 15.4608L12.6216 15.4509C12.3146 14.868 11.8279 14.3996 11.2336 14.1148L11.2239 14.1099C10.4865 13.7515 10.039 13.0113 10.0843 12.2243L10.0853 12.2057C10.1207 11.549 9.93793 10.8988 9.56579 10.3569C9.11601 9.70046 9.11627 8.83501 9.56656 8.17905V8.17854Z" fill="#3B404A"/>
<path d="M14.3235 14.658C14.5676 14.8105 14.8891 14.7359 15.0416 14.4918L21.2171 4.59869C21.3179 4.44062 21.3263 4.24055 21.2387 4.07484C21.1511 3.90887 20.9811 3.80298 20.7938 3.79713C20.6064 3.79128 20.4303 3.88648 20.3325 4.04658L14.1573 13.9397C14.0048 14.184 14.0792 14.5055 14.3235 14.658V14.658Z" fill="#3B404A"/>
<path d="M14.8763 9.2954C16.1457 9.2954 17.1787 8.11762 17.1787 6.67003C17.1787 5.22244 16.1457 4.04492 14.8763 4.04492C13.6069 4.04492 12.5742 5.22244 12.5742 6.67003C12.5742 8.11762 13.6069 9.2954 14.8763 9.2954ZM14.8763 5.08753C15.571 5.08753 16.1361 5.79746 16.1361 6.67003C16.1361 7.54261 15.571 8.25279 14.8763 8.25279C14.1819 8.25279 13.6168 7.54235 13.6168 6.67003C13.6168 5.79771 14.1819 5.08753 14.8763 5.08753Z" fill="#3B404A"/>
<path d="M18.1953 11.8693C18.1953 13.3168 19.228 14.4944 20.4974 14.4944C21.7668 14.4944 22.7998 13.3166 22.7998 11.8693C22.7998 10.4222 21.7671 9.24414 20.4977 9.24414C19.228 9.24414 18.1953 10.4214 18.1953 11.8693V11.8693ZM21.7572 11.8693C21.7572 12.7418 21.1921 13.4518 20.4974 13.4518C19.803 13.4518 19.2379 12.7418 19.2379 11.8693C19.2379 10.9967 19.803 10.2868 20.4974 10.2868C21.1921 10.2868 21.7572 10.9962 21.7572 11.8693Z" fill="#3B404A"/>
<path d="M28.6823 20.5256C27.992 19.3005 26.4611 18.8339 25.205 19.4657L21.1213 21.3951C20.5575 20.3467 19.476 19.6793 18.2857 19.6457L14.5159 19.5418C13.919 19.5247 13.3333 19.3733 12.8026 19.0994L12.419 18.9006C10.4549 17.8768 8.11389 17.8794 6.15187 18.9072L6.1758 18.0382C6.18369 17.7503 5.95689 17.5105 5.669 17.5027L1.53521 17.3889C1.24732 17.381 1.0078 17.6078 0.999907 17.8957L0.7502 26.9673C0.742309 27.2552 0.969107 27.495 1.257 27.5029L5.39079 27.6167H5.4053C5.68758 27.6164 5.91846 27.3917 5.92635 27.1096L5.93806 26.6756L7.01197 26.1006C7.4335 25.8738 7.92655 25.8199 8.38702 25.9502L14.7997 27.7501C14.8109 27.7534 14.8221 27.7559 14.8336 27.7585C15.2971 27.8555 15.7696 27.9041 16.2433 27.9038C17.2462 27.9043 18.2374 27.6882 19.1489 27.2697C19.1713 27.2596 19.1929 27.2479 19.2135 27.2346L28.5115 21.22C28.7434 21.0703 28.8182 20.7656 28.6823 20.5256V20.5256ZM1.80681 26.4748L2.02775 18.4457L5.11944 18.5308L4.89824 26.5601L1.80681 26.4748ZM18.679 26.3381C17.5465 26.8492 16.2817 26.9903 15.0645 26.7413L8.6688 24.9465C7.9492 24.7429 7.17845 24.8274 6.51994 25.1815L5.97115 25.4752L6.11827 20.1367C7.85706 18.98 10.0874 18.8612 11.9394 19.8261L12.323 20.0249C12.9935 20.3711 13.7332 20.5623 14.4874 20.5839L18.2572 20.6878C19.3161 20.718 20.2154 21.472 20.4302 22.5095L14.815 22.355C14.5271 22.3471 14.2876 22.5739 14.2797 22.8618C14.2718 23.1497 14.4986 23.3895 14.7865 23.3974L20.9834 23.5679H20.9981C21.2802 23.5677 21.511 23.3429 21.5189 23.0609C21.5253 22.8343 21.5082 22.6075 21.4685 22.3845L25.6563 20.4055L25.6685 20.3996C26.2626 20.0987 26.9812 20.1993 27.4697 20.6516L18.679 26.3381Z" fill="#3B404A"/>
</g>
<defs>
<clipPath id="clip0_2258_74924">
<rect width="28" height="28" fill="white" transform="translate(0.75)"/>
</clipPath>
</defs>
</svg>
