<svg width="60" height="61" viewBox="0 0 60 61" fill="none" xmlns="http://www.w3.org/2000/svg">
<circle cx="30" cy="30.7031" r="30" fill="#E6F3F0"/>
<path d="M30 45.5C22.0028 45.5 15.5 38.9971 15.5 31C15.5 23.0029 22.0029 16.5 30 16.5C37.9971 16.5 44.5 23.0029 44.5 31C44.5 38.9971 37.9971 45.5 30 45.5ZM30 17.379C22.4864 17.379 16.379 23.4865 16.379 31C16.379 38.5135 22.4865 44.621 30 44.621C37.5135 44.621 43.621 38.5135 43.621 31C43.621 23.4865 37.5135 17.379 30 17.379Z" fill="#048766" stroke="#048766" stroke-width="0.3"/>
<path d="M31.4528 29.3737C33.3863 28.7584 34.7483 26.9571 34.7483 24.848C34.7483 22.2116 32.5953 20.1025 30.0028 20.1025C27.4103 20.1022 25.2574 22.2113 25.2574 24.8477C25.2574 26.9568 26.6635 28.7584 28.5967 29.3733C24.4226 30.0766 21.2148 33.6795 21.2148 38.0297V40.2267H32.1994V39.3478H22.0939V38.0297C22.0939 33.6358 25.653 30.1206 30.003 30.1206C34.353 30.1206 37.9121 33.6797 37.9121 38.0297V39.3478H36.5939V40.2267H38.791V38.0297C38.791 33.6797 35.6273 30.0332 31.453 29.3741L31.4528 29.3737ZM26.1363 24.8477C26.1363 22.6948 27.8937 20.9811 30.0028 20.9811C32.1119 20.9811 33.8694 22.7386 33.8694 24.8477C33.8694 26.9568 32.1119 28.7143 30.0028 28.7143C27.8937 28.7146 26.1363 26.9568 26.1363 24.8477Z" fill="#048766" stroke="#048766" stroke-width="0.3"/>
<path d="M35.7106 39.3498H34.832V38.4712H33.9531V39.3498H33.0742V40.2287H33.9531V41.1076H34.832V40.2287H35.7106V39.3498Z" fill="#048766" stroke="#048766" stroke-width="0.3"/>
</svg>
