<svg width="60" height="61" viewBox="0 0 60 61" fill="none" xmlns="http://www.w3.org/2000/svg">
<circle cx="30" cy="30.7031" r="30" fill="#E6F3F0"/>
<g clip-path="url(#clip0_2604_80433)">
<path d="M30.1646 35.694C27.6034 35.694 25.5195 33.6101 25.5195 31.0489C25.5195 28.4876 27.6034 26.4038 30.1646 26.4038C32.7259 26.4038 34.8097 28.4876 34.8097 31.0489C34.8097 33.6101 32.7259 35.694 30.1646 35.694ZM30.1646 27.436C28.1725 27.436 26.5518 29.0568 26.5518 31.0489C26.5518 33.041 28.1725 34.6617 30.1646 34.6617C32.1567 34.6617 33.7775 33.041 33.7775 31.0489C33.7775 29.0566 32.1567 27.436 30.1646 27.436Z" fill="#048766" stroke="#048766" stroke-width="0.1"/>
<path d="M38.9781 19.0799C39.0961 18.7569 39.1636 18.4099 39.1636 18.0472C39.1638 16.367 37.7858 15 36.0923 15C34.3985 15 33.0207 16.367 33.0207 18.0472C33.0207 19.7271 34.3987 21.0941 36.0923 21.0941C37.0462 21.0941 37.8996 20.6603 38.4636 19.9815C42.0009 22.5821 44.102 26.6828 44.102 31.0589C44.102 38.4952 38.1286 44.576 30.6829 44.8455V40.9833H31.7612C32.046 40.9833 32.2773 40.752 32.2773 40.4672V39.0211C32.9167 38.8389 33.5312 38.5762 34.1123 38.237L35.0795 39.2428C35.2795 39.4506 35.6235 39.4506 35.8235 39.2428L38.0765 36.9004C38.2686 36.7007 38.2686 36.3846 38.0765 36.1848L37.0912 35.1604C37.4276 34.5525 37.6854 33.9033 37.861 33.2222H39.2267C39.5115 33.2222 39.7428 32.9909 39.7428 32.7061V29.3907C39.7428 29.1059 39.5115 28.8746 39.2267 28.8746H37.8587C37.6809 28.1995 37.423 27.5511 37.0889 26.9384L38.0765 25.9117C38.2686 25.712 38.2686 25.3958 38.0765 25.1961L35.8235 22.8539C35.6219 22.6447 35.277 22.6459 35.077 22.8567L34.1118 23.8742C33.536 23.5339 32.9217 23.2717 32.2773 23.0917V21.6293C32.2773 21.3445 32.0459 21.1132 31.7611 21.1132H30.6828V16.7471C30.6828 16.4623 30.4515 16.231 30.1667 16.231C21.9135 16.231 15.1992 22.8827 15.1992 31.0592C15.1992 35.7343 17.4423 40.1388 21.2128 42.9342C21.0982 43.253 21.0323 43.595 21.0323 43.9528C21.0323 45.633 22.4104 47 24.1037 47C25.7975 47 27.1753 45.633 27.1753 43.9528C27.1753 42.2729 25.7972 40.9059 24.1037 40.9059C23.145 40.9059 22.2881 41.3444 21.7245 42.0291C18.278 39.4244 16.2312 35.365 16.2312 31.0591C16.2312 23.6228 22.2047 17.542 29.6504 17.2725V21.1129H28.5721C28.2873 21.1129 28.056 21.3443 28.056 21.629V23.0751C27.4163 23.2576 26.8016 23.5203 26.221 23.8595L25.2537 22.8537C25.0538 22.6459 24.7097 22.6459 24.5098 22.8537L22.2568 25.1958C22.0647 25.3956 22.0647 25.7117 22.2568 25.9115L23.2421 26.9364C22.9057 27.5442 22.6478 28.1935 22.4722 28.8746H21.1066C20.8218 28.8746 20.5905 29.1059 20.5905 29.3907V32.7063C20.5905 32.9911 20.8218 33.2224 21.1066 33.2224H22.4745C22.6524 33.8975 22.9102 34.5459 23.2444 35.1585L22.2568 36.185C22.0647 36.3848 22.0647 36.7009 22.2568 36.9007L24.5098 39.243C24.7042 39.4451 25.0591 39.4451 25.2537 39.243L26.2187 38.2396C26.7956 38.5808 27.4108 38.8435 28.056 39.0239V40.4674C28.056 40.7522 28.2873 40.9836 28.5721 40.9836L29.6504 40.984V45.3715C29.6504 45.6563 29.8817 45.8876 30.1665 45.8876C38.4197 45.8876 45.134 39.2359 45.134 31.0594C45.134 26.3138 42.8377 21.8712 38.9777 19.08L38.9781 19.0799ZM36.0922 20.0617C34.9678 20.0617 34.0529 19.158 34.0529 18.047C34.0529 16.936 34.9676 16.0323 36.0922 16.0323C37.2168 16.0323 38.1313 16.9362 38.1313 18.0472C38.1316 19.1583 37.2166 20.0617 36.0922 20.0617ZM24.1047 41.9381C25.229 41.9381 26.144 42.8418 26.144 43.9528C26.144 45.0639 25.229 45.9675 24.1047 45.9675C22.9803 45.9675 22.0655 45.0636 22.0655 43.9526C22.0655 42.8416 22.98 41.9381 24.1047 41.9381ZM29.0887 39.9517V38.6218C29.0887 38.3796 28.9207 38.1704 28.6845 38.1181C27.8756 37.9384 27.1154 37.6128 26.4258 37.1509C26.2173 37.0113 25.9396 37.0414 25.7664 37.2216L24.882 38.1412L23.3452 36.5433L24.2572 35.5952C24.4194 35.4265 24.4479 35.1696 24.3265 34.9694C23.8814 34.2364 23.5657 33.4388 23.3871 32.5994C23.3369 32.3609 23.1261 32.1904 22.8823 32.1904H21.6227V29.907H22.8823C23.1272 29.907 23.3385 29.7349 23.3878 29.4948C23.562 28.6478 23.8772 27.8527 24.3237 27.1319C24.4479 26.9317 24.4205 26.6722 24.2569 26.5022L23.3449 25.5538L24.8818 23.9562L25.7661 24.8757C25.9382 25.0545 26.2136 25.0859 26.4214 24.9492C27.1223 24.4893 27.8849 24.1626 28.6877 23.978C28.9223 23.9241 29.0884 23.7156 29.0884 23.4751V22.1454H31.245V23.4942C31.245 23.7363 31.413 23.9455 31.6489 23.9978C32.4588 24.178 33.2187 24.5034 33.9079 24.9651C34.1173 25.1052 34.3966 25.0741 34.5696 24.8916L35.4542 23.9589L36.988 25.554L36.0765 26.5019C35.9143 26.6706 35.8857 26.9275 36.0072 27.1277C36.4523 27.8607 36.768 28.6583 36.9466 29.4977C36.9968 29.7362 37.2076 29.9067 37.4514 29.9067H38.711V32.1901H37.4514C37.2065 32.1901 36.9952 32.3622 36.9459 32.6023C36.7717 33.4493 36.4565 34.2445 36.01 34.9652C35.8858 35.1656 35.9132 35.4249 36.0768 35.5949L36.9887 36.543L35.4519 38.141L34.5676 37.2214C34.3952 37.0426 34.1206 37.0112 33.9126 37.1479C33.2109 37.608 32.4483 37.9347 31.646 38.1186C31.4117 38.1723 31.2453 38.381 31.2453 38.6216V39.9515L29.0887 39.9517Z" fill="#048766" stroke="#048766" stroke-width="0.1"/>
</g>
<defs>
<clipPath id="clip0_2604_80433">
<rect width="32" height="32" fill="white" transform="translate(14 15)"/>
</clipPath>
</defs>
</svg>
