<svg width="60" height="61" viewBox="0 0 60 61" fill="none" xmlns="http://www.w3.org/2000/svg">
<circle cx="30" cy="30.7031" r="30" fill="#E6F3F0"/>
<path d="M37.5974 33.8317C37.9448 33.4731 38.2665 33.0904 38.5601 32.6864L40.4415 34.5678C40.722 34.8499 41.1038 35.0081 41.5018 35.0069H42.1788C42.4223 35.6953 43.126 36.1082 43.8457 35.9847C44.5653 35.8614 45.0913 35.2374 45.0913 34.5072C45.0913 33.7771 44.5652 33.1532 43.8457 33.0297C43.126 32.9064 42.4223 33.3193 42.1788 34.0075H41.5018C41.3692 34.0077 41.2418 33.955 41.148 33.861L39.1248 31.838C41.7329 27.4311 40.7793 21.7848 36.8685 18.4793C32.9575 15.1736 27.2317 15.1736 23.3204 18.4793C19.4095 21.785 18.456 27.4308 21.0641 31.838L19.0409 33.861C18.9471 33.955 18.8198 34.0077 18.6871 34.0075H18.0101C17.7666 33.3193 17.0629 32.9064 16.3432 33.0297C15.6237 33.1532 15.0977 33.777 15.0977 34.5072C15.0977 35.2373 15.6237 35.8613 16.3432 35.9847C17.0629 36.1082 17.7666 35.6953 18.0101 35.0069H18.6871C19.0851 35.0081 19.4669 34.8499 19.7474 34.5678L21.6288 32.6864C21.9224 33.0904 22.2441 33.4731 22.5915 33.8317C22.6256 33.8796 22.6677 33.9213 22.7159 33.9546C22.9215 34.1585 23.1352 34.3541 23.3572 34.5417L20.0402 37.8587C19.9464 37.9524 19.8192 38.0052 19.6864 38.0049H18.0101C17.7666 37.3167 17.0629 36.9038 16.3432 37.0273C15.6237 37.1506 15.0977 37.7747 15.0977 38.5048C15.0977 39.2347 15.6237 39.8588 16.3432 39.9821C17.0629 40.1056 17.7666 39.6927 18.0101 39.0045H19.6864C20.0844 39.0058 20.4662 38.8476 20.7467 38.5652L24.1562 35.1568C24.7638 35.5748 25.4144 35.9265 26.0969 36.2062V37.0057H25.5973C25.0453 37.0057 24.5978 37.4531 24.5978 38.005V42.5022C24.5986 42.9094 24.6711 43.3133 24.8117 43.6954C25.3132 45.0775 26.6255 45.9983 28.0955 46H32.0931C33.5627 45.9983 34.8746 45.0779 35.3765 43.6965C35.5173 43.314 35.59 42.9099 35.5909 42.5023V38.005C35.5909 37.4531 35.1433 37.0058 34.5914 37.0058H34.0917V36.2063C34.7742 35.9265 35.4248 35.5748 36.0325 35.1568L39.442 38.5657C39.7224 38.8479 40.1043 39.0058 40.5023 39.0046H42.1786C42.422 39.6928 43.1258 40.1057 43.8455 39.9822C44.565 39.8589 45.091 39.2348 45.091 38.5049C45.091 37.7748 44.565 37.1507 43.8455 37.0274C43.1258 36.9039 42.422 37.3168 42.1786 38.005H40.5023C40.3694 38.0052 40.2423 37.9525 40.1485 37.8587L36.8315 34.5417C37.0537 34.3546 37.2674 34.1588 37.4727 33.9547C37.521 33.9213 37.5631 33.8797 37.5971 33.8318L37.5974 33.8317ZM43.5857 34.0076C43.8617 34.0076 44.0856 34.2313 44.0856 34.5072C44.0856 34.7832 43.8617 35.0069 43.5857 35.0069C43.3098 35.0069 43.0861 34.7832 43.0861 34.5072C43.0861 34.2313 43.3098 34.0076 43.5857 34.0076ZM16.6033 35.0069C16.3273 35.0069 16.1034 34.7832 16.1034 34.5072C16.1034 34.2312 16.3273 34.0076 16.6033 34.0076C16.8793 34.0076 17.1029 34.2312 17.1029 34.5072C17.1029 34.7832 16.8793 35.0069 16.6033 35.0069ZM16.6033 39.0044C16.3273 39.0044 16.1034 38.7808 16.1034 38.5048C16.1034 38.2288 16.3273 38.0049 16.6033 38.0049C16.8793 38.0049 17.1029 38.2288 17.1029 38.5048C17.1029 38.7808 16.8793 39.0044 16.6033 39.0044ZM43.5857 38.005C43.8617 38.005 44.0856 38.2288 44.0856 38.5048C44.0856 38.7808 43.8617 39.0045 43.5857 39.0045C43.3098 39.0045 43.0861 38.7808 43.0861 38.5048C43.0861 38.2288 43.3098 38.005 43.5857 38.005ZM20.6006 26.5127C20.5915 22.285 23.3789 18.561 27.4375 17.3777C31.4961 16.1947 35.848 17.8378 38.1123 21.4081C40.3764 24.9783 40.0069 29.6155 37.2061 32.7823C36.974 32.5412 36.7065 32.3368 36.4131 32.1761L33.5239 30.6601C33.26 30.5189 33.0946 30.2446 33.0927 29.9455V28.8562C33.5122 28.1253 33.8298 27.3403 34.0365 26.5232C34.2693 26.2492 34.4477 25.9332 34.5623 25.5924C34.5816 25.5382 34.5916 25.481 34.5916 25.4233V24.1091C34.5916 24.0083 34.5612 23.9099 34.5042 23.8268L34.092 23.2248V21.4608C34.1524 20.6601 33.8953 19.8676 33.3765 19.2547C32.6863 18.4678 31.5812 18.0681 30.0886 18.0629C28.6009 18.068 27.4962 18.4678 26.8092 19.2538C26.2913 19.8676 26.0355 20.6605 26.0972 21.4614V23.2248L25.6849 23.8268C25.6279 23.9099 25.5975 24.0083 25.5975 24.1091V25.4233C25.5975 25.4875 25.6099 25.5513 25.6339 25.6109C25.764 25.9455 25.9513 26.2549 26.1875 26.5251C26.3887 27.3367 26.6942 28.1184 27.0965 28.8511V29.9454C27.0703 30.238 26.9113 30.5022 26.6646 30.6619L23.7701 32.1796C23.4786 32.3391 23.2133 32.5423 22.983 32.7821C21.4542 31.0508 20.6074 28.8224 20.6006 26.5129L20.6006 26.5127ZM34.0731 35.1338C33.8728 33.0867 32.1516 31.5255 30.0946 31.5255C28.0375 31.5255 26.3164 33.0867 26.1161 35.1338C25.2227 34.7198 24.3996 34.1685 23.6765 33.4998C23.8396 33.3242 24.0301 33.1762 24.2402 33.0612L27.1315 31.5456C27.7054 31.2123 28.0692 30.6084 28.0957 29.9451V28.7159C28.0957 28.6232 28.07 28.5325 28.0213 28.4536C27.6095 27.7315 27.3065 26.9525 27.122 26.142C27.0848 26.0191 27.0095 25.9111 26.907 25.8337C26.7767 25.6804 26.6721 25.5071 26.5968 25.3205V24.2638L27.0091 23.6642C27.0665 23.5802 27.0969 23.4809 27.0965 23.3792V21.4355C27.0965 21.4149 27.095 21.3945 27.0924 21.3741C27.0552 20.8402 27.2262 20.3125 27.5698 19.9019C28.062 19.3478 28.9103 19.067 30.0886 19.0621C31.2667 19.057 32.1227 19.3482 32.6164 19.9034C32.96 20.3124 33.132 20.8385 33.0967 21.3715C33.0941 21.3928 33.0926 21.414 33.0926 21.4355V23.3792C33.0926 23.48 33.123 23.5785 33.18 23.6616L33.5923 24.2637V25.331C33.5264 25.5109 33.4328 25.6793 33.3155 25.8307C33.2066 25.9012 33.1296 26.0116 33.1007 26.1379C32.9111 26.9492 32.5983 27.7267 32.1726 28.4431C32.1205 28.5245 32.0929 28.6191 32.0933 28.7159V29.945C32.0914 30.6177 32.4643 31.2356 33.0607 31.5471L35.9408 33.0582C36.1532 33.1741 36.3454 33.3233 36.5104 33.5004C35.7881 34.1686 34.9657 34.7198 34.073 35.1337L34.0731 35.1338ZM34.5916 39.0044H33.5923C33.3164 39.0044 33.0927 39.2281 33.0927 39.5041C33.0927 39.7801 33.3164 40.0037 33.5923 40.0037H34.5916V41.003H33.5923C33.3164 41.003 33.0927 41.2269 33.0927 41.5029C33.0927 41.7786 33.3164 42.0025 33.5923 42.0025H34.5916V42.5022C34.5918 42.6699 34.5753 42.8375 34.5417 43.0018H33.5924C33.3164 43.0018 33.0927 43.2255 33.0927 43.5015C33.0927 43.7774 33.3164 44.0011 33.5924 44.0011H34.079C33.6113 44.6282 32.8756 44.9983 32.0934 45.0006H28.0958C27.3136 44.9983 26.578 44.6281 26.1102 44.0011H26.5969C26.8729 44.0011 27.0966 43.7774 27.0966 43.5015C27.0966 43.2255 26.8729 43.0018 26.5969 43.0018H25.6476C25.614 42.8375 25.5974 42.6699 25.5976 42.5022V42.0025H26.5969C26.8729 42.0025 27.0966 41.7786 27.0966 41.5029C27.0966 41.2269 26.8729 41.003 26.5969 41.003H25.5976V40.0037H26.5969C26.8729 40.0037 27.0966 39.7801 27.0966 39.5041C27.0966 39.2281 26.8729 39.0044 26.5969 39.0044H25.5976V38.005H34.5916L34.5916 39.0044ZM27.0967 37.0056V35.5067C27.0967 33.8508 28.4389 32.5086 30.0947 32.5086C31.7506 32.5086 33.0928 33.8508 33.0928 35.5067V37.0056H27.0967Z" fill="#048766"/>
<path d="M30.0923 39.5044C29.3631 39.5029 28.7393 40.0279 28.6155 40.7465C28.492 41.4651 28.9049 42.1682 29.5927 42.4104V43.5018C29.5927 43.7777 29.8164 44.0014 30.0923 44.0014C30.3683 44.0014 30.592 43.7777 30.592 43.5018V42.4104C31.2798 42.1682 31.6927 41.4651 31.5692 40.7465C31.4454 40.0278 30.8216 39.5029 30.0923 39.5044H30.0923ZM30.0923 41.5032C29.8164 41.5032 29.5927 41.2793 29.5927 41.0034C29.5927 40.7274 29.8164 40.5037 30.0923 40.5037C30.3683 40.5037 30.592 40.7274 30.592 41.0034C30.592 41.2793 30.3683 41.5032 30.0923 41.5032Z" fill="#048766"/>
</svg>
