<svg width="60" height="61" viewBox="0 0 60 61" fill="none" xmlns="http://www.w3.org/2000/svg">
<circle cx="30" cy="30.7031" r="30" fill="#E6F3F0"/>
<g clip-path="url(#clip0_2604_80421)">
<path d="M30.8362 46.0004L27.1868 41.8964C26.8494 41.4864 26.6838 40.9615 26.7249 40.4321C26.766 39.9026 27.0104 39.4096 27.4071 39.0564C27.8037 38.7032 28.3216 38.5174 28.8523 38.5377C29.383 38.5581 29.8852 38.7832 30.2535 39.1658L32.8095 42.0418V30.1631C32.8095 29.638 33.0181 29.1344 33.3894 28.763C33.7608 28.3917 34.2644 28.1831 34.7895 28.1831C35.3146 28.1831 35.8183 28.3917 36.1896 28.763C36.5609 29.1344 36.7695 29.638 36.7695 30.1631V39.0724H38.7495C40.3242 39.0724 41.8344 39.698 42.9478 40.8114C44.0613 41.9249 44.6869 43.4351 44.6869 45.0098V46.0004" stroke="#048766" stroke-width="1.5" stroke-linecap="round" stroke-linejoin="round"/>
<path d="M18.9609 26.1987V32.1374C18.9599 32.6623 19.1673 33.1661 19.5376 33.5382C19.9079 33.9102 20.4107 34.12 20.9356 34.1214H28.8543" stroke="#048766" stroke-width="1.5" stroke-linecap="round" stroke-linejoin="round"/>
<path d="M34.8 24.2239L26.2227 16.5079C25.8589 16.1809 25.3871 16 24.898 16C24.4089 16 23.9371 16.1809 23.5733 16.5079L15 24.2239" stroke="#048766" stroke-width="1.5" stroke-linecap="round" stroke-linejoin="round"/>
<path d="M32.8164 22.4411V17.2944" stroke="#048766" stroke-width="1.5" stroke-linecap="round" stroke-linejoin="round"/>
</g>
<defs>
<clipPath id="clip0_2604_80421">
<rect width="32" height="32" fill="white" transform="translate(14 15)"/>
</clipPath>
</defs>
</svg>
