<svg width="60" height="61" viewBox="0 0 60 61" fill="none" xmlns="http://www.w3.org/2000/svg">
<circle cx="30" cy="30.7031" r="30" fill="#E6F3F0"/>
<path d="M29.6462 32.9844C29.4684 32.9844 29.3242 32.8402 29.3242 32.6624V31.9001C29.3242 31.7223 29.4684 31.5781 29.6462 31.5781C29.824 31.5781 29.9682 31.7223 29.9682 31.9001V32.6624C29.9682 32.8402 29.824 32.9844 29.6462 32.9844Z" fill="#048766"/>
<path d="M29.6462 23.0737C29.4684 23.0737 29.3242 22.9295 29.3242 22.7517V21.9895C29.3242 21.8117 29.4684 21.6675 29.6462 21.6675C29.824 21.6675 29.9682 21.8117 29.9682 21.9895V22.7517C29.9682 22.9295 29.824 23.0737 29.6462 23.0737Z" fill="#048766"/>
<path d="M25.0725 27.6484H24.3103C24.1325 27.6484 23.9883 27.5042 23.9883 27.3264C23.9883 27.1486 24.1325 27.0044 24.3103 27.0044H25.0725C25.2503 27.0044 25.3945 27.1486 25.3945 27.3264C25.3945 27.5042 25.2503 27.6484 25.0725 27.6484Z" fill="#048766"/>
<path d="M34.9827 27.6484H34.2205C34.0427 27.6484 33.8984 27.5042 33.8984 27.3264C33.8984 27.1486 34.0427 27.0044 34.2205 27.0044H34.9827C35.1605 27.0044 35.3047 27.1486 35.3047 27.3264C35.3047 27.5042 35.1605 27.6484 34.9827 27.6484Z" fill="#048766"/>
<path d="M25.8729 31.422C25.7905 31.422 25.7079 31.3905 25.6451 31.3277C25.5193 31.2019 25.5193 30.9981 25.6451 30.8723L26.1843 30.3331C26.3101 30.2073 26.5139 30.2073 26.6397 30.3331C26.7655 30.4589 26.7655 30.6627 26.6397 30.7885L26.1006 31.3277C26.0378 31.3905 25.9552 31.422 25.8729 31.422Z" fill="#048766"/>
<path d="M32.8807 24.4151C32.7983 24.4151 32.7157 24.3836 32.653 24.3208C32.5271 24.195 32.5271 23.9912 32.653 23.8654L33.1921 23.3263C33.3177 23.2005 33.5217 23.2005 33.6475 23.3263C33.7733 23.4521 33.7733 23.6559 33.6475 23.7817L33.1084 24.3208C33.0456 24.3836 32.963 24.4151 32.8807 24.4151Z" fill="#048766"/>
<path d="M26.4159 24.4151C26.3335 24.4151 26.251 24.3836 26.1882 24.3208L25.649 23.7817C25.5232 23.6559 25.5232 23.4521 25.649 23.3263C25.7749 23.2005 25.9787 23.2005 26.1045 23.3263L26.6436 23.8654C26.7694 23.9912 26.7694 24.195 26.6436 24.3208C26.5806 24.3836 26.4982 24.4151 26.4159 24.4151Z" fill="#048766"/>
<path d="M33.4198 31.422C33.3375 31.422 33.2549 31.3905 33.1921 31.3277L32.653 30.7885C32.5271 30.6627 32.5271 30.4589 32.653 30.3331C32.7785 30.2073 32.9826 30.2073 33.1084 30.3331L33.6475 30.8723C33.7733 30.9981 33.7733 31.2019 33.6475 31.3277C33.5845 31.3905 33.5021 31.422 33.4198 31.422Z" fill="#048766"/>
<path d="M29.6474 28.4096C29.5639 28.4096 29.4813 28.3771 29.4197 28.3152L27.8951 26.7905C27.7693 26.6647 27.7693 26.4609 27.8951 26.3351C28.021 26.2093 28.2247 26.2093 28.3506 26.3351L29.711 27.6955L31.028 27.037C31.1872 26.9574 31.3806 27.0218 31.46 27.181C31.5396 27.3402 31.4752 27.5334 31.316 27.613L29.7913 28.3752C29.7455 28.3984 29.6963 28.4094 29.6473 28.4094L29.6474 28.4096Z" fill="#048766" stroke="#048766" stroke-width="0.4"/>
<path d="M29.6465 32.9839C26.5267 32.9839 23.9883 30.4458 23.9883 27.3257C23.9883 24.2056 26.5266 21.6675 29.6465 21.6675C32.7663 21.6675 35.3047 24.2058 35.3047 27.3257C35.3047 30.4455 32.7663 32.9839 29.6465 32.9839ZM29.6465 22.3115C26.8816 22.3115 24.6323 24.561 24.6323 27.3257C24.6323 30.0904 26.8816 32.3398 29.6465 32.3398C32.4114 32.3398 34.6606 30.0906 34.6606 27.3257C34.6606 24.5608 32.4114 22.3115 29.6465 22.3115Z" fill="#048766" stroke="#048766" stroke-width="0.4"/>
<path d="M29.6434 35.192C25.3061 35.192 21.7773 31.6635 21.7773 27.326C21.7773 22.9888 25.3059 19.46 29.6434 19.46C33.9809 19.46 37.5094 22.9885 37.5094 27.326C37.5094 31.6632 33.9809 35.192 29.6434 35.192ZM29.6434 20.1047C25.6613 20.1047 22.4215 23.3444 22.4215 27.3266C22.4215 31.3087 25.6612 34.5485 29.6434 34.5485C33.6256 34.5485 36.8653 31.3088 36.8653 27.3266C36.8653 23.3445 33.6256 20.1047 29.6434 20.1047Z" fill="#048766" stroke="#048766" stroke-width="0.4"/>
<path d="M37.1704 45.9997H22.1267C21.775 45.9997 21.4417 45.8304 21.1878 45.5231C20.8101 45.0658 20.6546 44.3701 20.782 43.7077L21.6869 39.0026C21.8426 38.193 22.3955 37.6274 23.0315 37.6274H24.8755C25.0533 37.6274 25.1975 37.7717 25.1975 37.9495C25.1975 38.1272 25.0533 38.2715 24.8755 38.2715H23.0315C22.7139 38.2715 22.4144 38.63 22.3194 39.1241L21.4146 43.8291C21.3237 44.3006 21.4297 44.8045 21.6844 45.113C21.7759 45.2239 21.9268 45.3559 22.1267 45.3559H37.1704C37.3703 45.3559 37.5214 45.2239 37.6129 45.113C37.8676 44.8048 37.9734 44.3009 37.8827 43.8291L36.9779 39.1241C36.8829 38.63 36.5834 38.2715 36.2655 38.2715H34.4216C34.2438 38.2715 34.0996 38.1273 34.0996 37.9495C34.0996 37.7717 34.2438 37.6274 34.4216 37.6274H36.2655C36.9015 37.6274 37.4544 38.1928 37.6102 39.0026L38.515 43.7077C38.6424 44.3703 38.487 45.0658 38.1093 45.5231C37.8556 45.8304 37.5221 45.9997 37.1704 45.9997H37.1704Z" fill="#048766" stroke="#048766" stroke-width="0.4"/>
<path d="M29.6505 43.4243C29.5477 43.4243 29.4511 43.3751 29.3904 43.292C27.93 41.29 26.2209 39.6687 24.5681 38.1008C21.3569 35.0543 18.3242 32.1766 18.3242 27.3265C18.3242 21.0809 23.4053 16 29.6508 16C35.8962 16 40.9773 21.0811 40.9773 27.3265C40.9773 32.1772 37.9442 35.0548 34.7334 38.1008C33.0806 39.6687 31.3716 41.29 29.9113 43.292C29.8503 43.3751 29.7537 43.4243 29.6509 43.4243H29.6505ZM29.6505 16.6436C23.76 16.6436 18.9682 21.4358 18.9682 27.3259C18.9682 31.8999 21.7687 34.5567 25.0112 37.6332C26.5886 39.1299 28.2168 40.6744 29.6505 42.5628C31.0841 40.6744 32.7121 39.1299 34.2897 37.6332C37.5326 34.5569 40.3328 31.9001 40.3328 27.3259C40.3328 21.4354 35.5405 16.6436 29.6504 16.6436H29.6505Z" fill="#048766" stroke="#048766" stroke-width="0.4"/>
<path d="M25.7848 42.7803H23.2087C23.0309 42.7803 22.8867 42.636 22.8867 42.4582C22.8867 42.2805 23.0309 42.1362 23.2087 42.1362H25.7848C25.9626 42.1362 26.1068 42.2804 26.1068 42.4582C26.1068 42.636 25.9626 42.7803 25.7848 42.7803Z" fill="#048766" stroke="#048766" stroke-width="0.4"/>
<path d="M24.4939 46.0003C24.3161 46.0003 24.1719 45.8561 24.1719 45.6783V41.1702C24.1719 40.9924 24.3161 40.8481 24.4939 40.8481C24.6717 40.8481 24.8159 40.9924 24.8159 41.1702V45.6783C24.8159 45.8561 24.6717 46.0003 24.4939 46.0003Z" fill="#048766" stroke="#048766" stroke-width="0.4"/>
<path d="M36.089 42.7803H32.8689C32.6911 42.7803 32.5469 42.636 32.5469 42.4582C32.5469 42.2805 32.6911 42.1362 32.8689 42.1362H36.089C36.2668 42.1362 36.411 42.2804 36.411 42.4582C36.411 42.636 36.2668 42.7803 36.089 42.7803Z" fill="#048766" stroke="#048766" stroke-width="0.4"/>
<path d="M34.8025 46.0003C34.6247 46.0003 34.4805 45.8561 34.4805 45.6783V41.1702C34.4805 40.9924 34.6247 40.8481 34.8025 40.8481C34.9803 40.8481 35.1245 40.9924 35.1245 41.1702V45.6783C35.1245 45.8561 34.9803 46.0003 34.8025 46.0003Z" fill="#048766" stroke="#048766" stroke-width="0.4"/>
<path d="M17.4108 39.5595C16.523 39.5595 15.8008 38.8372 15.8008 37.9494C15.8008 37.0616 16.523 36.3394 17.4108 36.3394C18.2987 36.3394 19.0209 37.0616 19.0209 37.9494C19.0209 38.8372 18.2987 39.5595 17.4108 39.5595ZM17.4108 36.9834C16.8782 36.9834 16.4448 37.4167 16.4448 37.9494C16.4448 38.4821 16.8782 38.9154 17.4108 38.9154C17.9435 38.9154 18.3769 38.4821 18.3769 37.9494C18.3769 37.4167 17.9435 36.9834 17.4108 36.9834Z" fill="#048766"/>
<path d="M17.4092 32.1553C17.4092 32.5109 17.1208 32.7993 16.7651 32.7993C16.4095 32.7993 16.1211 32.5109 16.1211 32.1553C16.1211 31.7995 16.4095 31.5112 16.7651 31.5112C17.1208 31.5112 17.4092 31.7994 17.4092 32.1553Z" fill="#048766"/>
<path d="M41.2412 39.8828C41.2412 40.2384 40.9528 40.5269 40.5972 40.5269C40.2416 40.5269 39.9531 40.2384 39.9531 39.8828C39.9531 39.527 40.2416 39.2388 40.5972 39.2388C40.9528 39.2388 41.2412 39.527 41.2412 39.8828Z" fill="#048766"/>
<path d="M40.5967 17.3428C40.5967 17.6984 40.3083 17.9868 39.9526 17.9868C39.597 17.9868 39.3086 17.6984 39.3086 17.3428C39.3086 16.987 39.597 16.6987 39.9526 16.6987C40.3083 16.6987 40.5967 16.9869 40.5967 17.3428Z" fill="#048766"/>
<path d="M43.1748 21.8516C43.1748 22.2072 42.8864 22.4956 42.5308 22.4956C42.1751 22.4956 41.8867 22.2072 41.8867 21.8516C41.8867 21.4957 42.1751 21.2075 42.5308 21.2075C42.8864 21.2075 43.1748 21.4957 43.1748 21.8516Z" fill="#048766"/>
<path d="M19.3428 17.9854C19.3428 18.341 19.0544 18.6294 18.6987 18.6294C18.3431 18.6294 18.0547 18.341 18.0547 17.9854C18.0547 17.6295 18.3431 17.3413 18.6987 17.3413C19.0544 17.3413 19.3428 17.6295 19.3428 17.9854Z" fill="#048766"/>
<path d="M17.4092 22.4946C17.4092 22.8502 17.1208 23.1387 16.7651 23.1387C16.4095 23.1387 16.1211 22.8503 16.1211 22.4946C16.1211 22.1388 16.4095 21.8506 16.7651 21.8506C17.1208 21.8506 17.4092 22.1388 17.4092 22.4946Z" fill="#048766"/>
<path d="M42.2055 36.9847C41.1401 36.9847 40.2734 36.118 40.2734 35.0526C40.2734 33.9873 41.1401 33.1206 42.2055 33.1206C43.2708 33.1206 44.1375 33.9873 44.1375 35.0526C44.1375 36.118 43.2708 36.9847 42.2055 36.9847ZM42.2055 33.7645C41.4952 33.7645 40.9174 34.3423 40.9174 35.0526C40.9174 35.7628 41.4952 36.3406 42.2055 36.3406C42.9157 36.3406 43.4935 35.7628 43.4935 35.0526C43.4935 34.3423 42.9157 33.7645 42.2055 33.7645Z" fill="#048766"/>
</svg>
