<svg width="24" height="24" viewBox="0 0 24 24" fill="none" xmlns="http://www.w3.org/2000/svg">
<path d="M10.9333 13.5962C11.249 13.8076 11.6202 13.9199 12 13.9199C12.509 13.9194 12.9971 13.7168 13.3571 13.3569C13.7169 12.9971 13.9194 12.5093 13.92 12C13.92 11.6201 13.8074 11.249 13.5964 10.9331C13.3855 10.6177 13.0856 10.3716 12.7347 10.2261C12.3839 10.0811 11.9979 10.043 11.6254 10.1167C11.2529 10.1909 10.9109 10.374 10.6423 10.6426C10.3738 10.9106 10.1909 11.2529 10.1169 11.6255C10.0428 11.998 10.0808 12.3838 10.2262 12.7349C10.3715 13.0854 10.6176 13.3853 10.9333 13.5962Z" fill="white"/>
<path fill-rule="evenodd" clip-rule="evenodd" d="M16.3363 16.3364C16.7863 15.8862 17.0393 15.2764 17.04 14.6401V9.35986C17.0393 8.72363 16.7863 8.11377 16.3363 7.66357C15.8864 7.21387 15.2762 6.96094 14.64 6.95996H9.35999C8.72375 6.96094 8.11365 7.21387 7.6637 7.66357C7.21375 8.11377 6.96069 8.72363 6.95996 9.35986V14.6401C6.96069 15.2764 7.21375 15.8862 7.6637 16.3364C8.11365 16.7861 8.72375 17.0391 9.35999 17.04H14.64C15.2762 17.0391 15.8864 16.7861 16.3363 16.3364ZM10.3999 9.60547C10.8735 9.28906 11.4304 9.12012 12 9.12012C12.7635 9.12109 13.4956 9.4248 14.0355 9.96436C14.5754 10.5044 14.8792 11.2363 14.88 12C14.88 12.3115 14.8296 12.6187 14.7322 12.9106C14.6514 13.1533 14.5382 13.3853 14.3947 13.6001C14.0781 14.0737 13.6284 14.4429 13.1022 14.6606C12.5759 14.8789 11.9968 14.9355 11.4381 14.8247C10.8795 14.7134 10.3663 14.4395 9.9635 14.0366C9.56079 13.6338 9.2865 13.1206 9.17529 12.562C9.06421 12.0034 9.12122 11.4243 9.33923 10.8979C9.55725 10.3716 9.92639 9.92188 10.3999 9.60547ZM15.8126 9.07666C15.8307 9.01318 15.84 8.94678 15.84 8.87988C15.84 8.68896 15.7642 8.50586 15.6292 8.37109C15.4941 8.23584 15.3109 8.16016 15.12 8.16016C14.9775 8.16016 14.8384 8.20215 14.72 8.28125C14.6016 8.36035 14.5093 8.47314 14.4548 8.60449C14.4003 8.73584 14.3861 8.88086 14.4138 9.02051C14.4417 9.16016 14.5101 9.28857 14.6108 9.38916C14.667 9.44531 14.7317 9.4917 14.8022 9.52637C14.8582 9.55371 14.9177 9.57373 14.9795 9.58594C15.1191 9.61377 15.2639 9.59961 15.3955 9.54541C15.5271 9.49072 15.6395 9.39844 15.7186 9.27979C15.7606 9.21729 15.7922 9.14844 15.8126 9.07666Z" fill="white"/>
<path fill-rule="evenodd" clip-rule="evenodd" d="M12 22C17.5228 22 22 17.5229 22 12C22 6.47705 17.5228 2 12 2C6.47717 2 2 6.47705 2 12C2 17.5229 6.47717 22 12 22ZM9.35999 6H14.64C15.5308 6.00098 16.3849 6.35547 17.0148 6.98535C17.6447 7.61523 17.999 8.46924 18 9.35986V14.6401C17.999 15.5308 17.6447 16.3848 17.0148 17.0146C16.3849 17.6445 15.5308 17.999 14.64 18H9.35999C8.46924 17.999 7.61511 17.6445 6.98523 17.0146C6.35535 16.3848 6.00098 15.5308 6 14.6401V9.35986C6.00098 8.46924 6.35535 7.61523 6.98523 6.98535C7.61511 6.35547 8.46924 6.00098 9.35999 6Z" fill="white"/>
</svg>
