<svg width="59" height="20" viewBox="0 0 59 20" fill="none" xmlns="http://www.w3.org/2000/svg">
<g clip-path="url(#clip0_2491_80893)">
<path d="M0.5 3.81836H5.19639C8.05755 3.81836 9.71779 5.01928 9.71779 7.08573C9.71779 8.63973 8.79914 9.52193 7.38678 9.8219C9.02828 10.0302 10.1584 10.8999 10.1584 12.6654C10.1584 14.8203 8.46375 16.1796 5.42657 16.1796H0.5V3.81836ZM3.14868 5.90148V8.90429H5.27034C6.40043 8.90429 7.07223 8.32102 7.07223 7.4034C7.07223 6.48579 6.41813 5.90252 5.27034 5.90252L3.14868 5.90148ZM3.14868 10.952V14.0767H5.44011C6.71081 14.0767 7.43574 13.4944 7.43574 12.5404C7.43574 11.5342 6.6931 10.952 5.44011 10.952H3.14868Z" fill="#535861"/>
<path d="M17.0822 7.10352H19.5725V16.1797H17.3655L17.1353 15.085C16.5531 15.7912 15.7583 16.2859 14.4689 16.2859C12.5941 16.2859 10.8672 15.3485 10.8672 12.1353V7.10352H13.3565V11.7999C13.3565 13.4247 13.8867 14.2194 15.122 14.2194C16.3572 14.2194 17.0822 13.3185 17.0822 11.6416V7.10352Z" fill="#535861"/>
<path d="M20.582 4.73761C20.582 3.9252 21.2174 3.32422 22.0298 3.32422C22.8422 3.32422 23.4776 3.9252 23.4776 4.73761C23.4776 5.53232 22.8422 6.13226 22.0298 6.13226C21.2174 6.13226 20.582 5.53232 20.582 4.73761ZM20.7768 7.10403H23.2838V16.1802H20.7768V7.10403Z" fill="#535861"/>
<path d="M24.4648 3.81836H26.9552V16.1796H24.4659L24.4648 3.81836Z" fill="#535861"/>
<path d="M34.7407 3.81836H37.231V16.1796H35.0584L34.8115 14.9297C34.2105 15.7067 33.3283 16.29 32.0212 16.29C29.5839 16.29 27.8008 14.5058 27.8008 11.628C27.8008 8.81576 29.5839 7.00136 32.0035 7.00136C33.2533 7.00136 34.1585 7.4961 34.7407 8.23769V3.81836ZM34.7761 11.6644C34.7761 10.1104 33.9283 9.03344 32.569 9.03344C31.2098 9.03344 30.3443 10.0927 30.3443 11.6467C30.3443 13.2007 31.2088 14.26 32.569 14.26C33.9293 14.26 34.7761 13.1955 34.7761 11.6644Z" fill="#535861"/>
<path d="M38.2383 4.73761C38.2383 3.9252 38.8736 3.32422 39.686 3.32422C40.4985 3.32422 41.1338 3.9252 41.1338 4.73761C41.1338 5.53232 40.4985 6.13226 39.686 6.13226C38.8736 6.13226 38.2383 5.53232 38.2383 4.73761ZM38.432 7.10403H40.9401V16.1802H38.432V7.10403Z" fill="#535861"/>
<path d="M41.6289 7.10343H43.1298V6.43163C43.1298 4.75472 44.0307 3.81836 45.867 3.81836H47.898V5.93585H46.3086C45.8139 5.93585 45.567 6.16499 45.567 6.67744V7.10135H47.898V9.20426H45.6202V16.1827H43.1298V9.20426H41.6289V7.10343Z" fill="#535861"/>
<path d="M48.2852 7.10352H50.9338L53.1409 13.5664L55.2948 7.10872H57.9612L53.9356 17.4743C53.37 18.9752 52.9118 19.7168 51.4984 19.7168H49.0788V17.6097H50.4568C51.0922 17.6097 51.3046 17.4514 51.5515 16.8327L51.7806 16.2328L48.2852 7.10352Z" fill="#535861"/>
</g>
<defs>
<clipPath id="clip0_2491_80893">
<rect width="58" height="20" fill="white" transform="translate(0.5)"/>
</clipPath>
</defs>
</svg>
