<svg width="132" height="32" viewBox="0 0 132 32" fill="none" xmlns="http://www.w3.org/2000/svg">
<g clip-path="url(#clip0_2110_70864)">
<path d="M39.9961 6.11133H47.5103C52.0882 6.11133 54.7446 8.03279 54.7446 11.3391C54.7446 13.8255 53.2747 15.237 51.0149 15.717C53.6413 16.0503 55.4495 17.4418 55.4495 20.2665C55.4495 23.7145 52.7381 25.8893 47.8786 25.8893H39.9961V6.11133ZM44.234 9.44431V14.2488H47.6286C49.4368 14.2488 50.5117 13.3156 50.5117 11.8474C50.5117 10.3792 49.4651 9.44598 47.6286 9.44598L44.234 9.44431ZM44.234 17.5251V22.5246H47.9003C49.9334 22.5246 51.0933 21.593 51.0933 20.0665C51.0933 18.4567 49.9051 17.5251 47.9003 17.5251H44.234Z" fill="white"/>
<path d="M66.5299 11.3672H70.5145V25.889H66.9832L66.6149 24.1375C65.6833 25.2674 64.4118 26.059 62.3487 26.059C59.349 26.059 56.5859 24.5591 56.5859 19.418V11.3672H60.5689V18.8814C60.5689 21.4811 61.4171 22.7527 63.3936 22.7527C65.37 22.7527 66.5299 21.3112 66.5299 18.6281V11.3672Z" fill="white"/>
<path d="M72.125 7.58174C72.125 6.28188 73.1416 5.32031 74.4414 5.32031C75.7413 5.32031 76.7578 6.28188 76.7578 7.58174C76.7578 8.85328 75.7413 9.81318 74.4414 9.81318C73.1416 9.81318 72.125 8.85328 72.125 7.58174ZM72.4366 11.368H76.4479V25.8898H72.4366V11.368Z" fill="white"/>
<path d="M78.3398 6.11133H82.3244V25.8893H78.3415L78.3398 6.11133Z" fill="white"/>
<path d="M94.7835 6.11133H98.7681V25.8893H95.2918L94.8969 23.8895C93.9353 25.1327 92.5238 26.0659 90.4323 26.0659C86.5327 26.0659 83.6797 23.2112 83.6797 18.6067C83.6797 14.1072 86.5327 11.2041 90.404 11.2041C92.4038 11.2041 93.852 11.9957 94.7835 13.1823V6.11133ZM94.8402 18.665C94.8402 16.1786 93.4837 14.4555 91.3089 14.4555C89.1341 14.4555 87.7493 16.1503 87.7493 18.6367C87.7493 21.1231 89.1324 22.8179 91.3089 22.8179C93.4853 22.8179 94.8402 21.1148 94.8402 18.665Z" fill="white"/>
<path d="M100.375 7.58174C100.375 6.28188 101.392 5.32031 102.691 5.32031C103.991 5.32031 105.008 6.28188 105.008 7.58174C105.008 8.85328 103.991 9.81318 102.691 9.81318C101.392 9.81318 100.375 8.85328 100.375 7.58174ZM100.685 11.368H104.698V25.8898H100.685V11.368Z" fill="white"/>
<path d="M105.805 11.3674H108.206V10.2926C108.206 7.60951 109.648 6.11133 112.586 6.11133H115.835V9.49931H113.292C112.501 9.49931 112.106 9.86594 112.106 10.6859V11.3641H115.835V14.7288H112.191V25.8943H108.206V14.7288H105.805V11.3674Z" fill="white"/>
<path d="M116.453 11.3672H120.691L124.222 21.7078L127.669 11.3755H131.935L125.494 27.9605C124.589 30.3619 123.856 31.5484 121.594 31.5484H117.723V28.1771H119.928C120.944 28.1771 121.284 27.9238 121.679 26.9339L122.046 25.974L116.453 11.3672Z" fill="white"/>
<path d="M0 9.37109V20.6849C3.00003 20.6849 5.87724 21.8764 7.9989 23.9975C10.1206 26.1185 11.3129 28.9954 11.3138 31.9954H22.6276C22.6268 25.9948 20.2424 20.2402 15.999 15.9974C11.7556 11.7546 6.00065 9.37109 0 9.37109H0Z" fill="white"/>
<path d="M31.9993 22.6276V11.3138C28.9993 11.3129 26.1224 10.1206 24.0014 7.9989C21.8804 5.87724 20.6888 3.00003 20.6888 0L9.375 0C9.375 6.00065 11.7585 11.7556 16.0013 15.999C20.2441 20.2424 25.9987 22.6268 31.9993 22.6276Z" fill="white"/>
</g>
<defs>
<clipPath id="clip0_2110_70864">
<rect width="131.936" height="32" fill="white"/>
</clipPath>
</defs>
</svg>
