<svg width="47" height="16" viewBox="0 0 47 16" fill="none" xmlns="http://www.w3.org/2000/svg">
<g clip-path="url(#clip0_2116_75526)">
<path d="M0.511719 3.05664H4.26883C6.55775 3.05664 7.88595 4.01737 7.88595 5.67054C7.88595 6.91374 7.15103 7.6195 6.02114 7.85947C7.33434 8.02612 8.23841 8.72188 8.23841 10.1342C8.23841 11.8582 6.88272 12.9456 4.45297 12.9456H0.511719V3.05664ZM2.63066 4.72313V7.12538H4.32799C5.23206 7.12538 5.7695 6.65877 5.7695 5.92467C5.7695 5.19058 5.24622 4.72397 4.32799 4.72397L2.63066 4.72313ZM2.63066 8.76355V11.2633H4.46381C5.48037 11.2633 6.06031 10.7975 6.06031 10.0342C6.06031 9.22933 5.4662 8.76355 4.46381 8.76355H2.63066Z" fill="white"/>
<path d="M13.7767 5.68359H15.769V12.9445H14.0033L13.8192 12.0688C13.3534 12.6337 12.7176 13.0295 11.6861 13.0295C10.1862 13.0295 8.80469 12.2796 8.80469 9.70901V5.68359H10.7961V9.4407C10.7961 10.7406 11.2203 11.3763 12.2085 11.3763C13.1967 11.3763 13.7767 10.6556 13.7767 9.31405V5.68359Z" fill="white"/>
<path d="M16.5781 3.79087C16.5781 3.14094 17.0864 2.66016 17.7363 2.66016C18.3863 2.66016 18.8945 3.14094 18.8945 3.79087C18.8945 4.42664 18.3863 4.90659 17.7363 4.90659C17.0864 4.90659 16.5781 4.42664 16.5781 3.79087ZM16.7339 5.68401H18.7396V12.9449H16.7339V5.68401Z" fill="white"/>
<path d="M19.6875 3.05664H21.6798V12.9456H19.6883L19.6875 3.05664Z" fill="white"/>
<path d="M27.9074 3.05664H29.8997V12.9456H28.1615L27.9641 11.9457C27.4833 12.5673 26.7775 13.0339 25.7318 13.0339C23.782 13.0339 22.3555 11.6066 22.3555 9.30432C22.3555 7.05456 23.782 5.60304 25.7176 5.60304C26.7175 5.60304 27.4416 5.99883 27.9074 6.59211V3.05664ZM27.9357 9.33349C27.9357 8.09028 27.2575 7.22871 26.1701 7.22871C25.0827 7.22871 24.3903 8.07612 24.3903 9.31932C24.3903 10.5625 25.0818 11.4099 26.1701 11.4099C27.2583 11.4099 27.9357 10.5584 27.9357 9.33349Z" fill="white"/>
<path d="M30.707 3.79087C30.707 3.14094 31.2153 2.66016 31.8652 2.66016C32.5152 2.66016 33.0235 3.14094 33.0235 3.79087C33.0235 4.42664 32.5152 4.90659 31.8652 4.90659C31.2153 4.90659 30.707 4.42664 30.707 3.79087ZM30.862 5.68401H32.8685V12.9449H30.862V5.68401Z" fill="white"/>
<path d="M33.418 5.6847H34.6187V5.14726C34.6187 3.80573 35.3394 3.05664 36.8084 3.05664H38.4333V4.75063H37.1617C36.766 4.75063 36.5685 4.93395 36.5685 5.3439V5.68303H38.4333V7.36536H36.611V12.9481H34.6187V7.36536H33.418V5.6847Z" fill="white"/>
<path d="M38.7422 5.68555H40.8611L42.6268 10.8558L44.3499 5.68971H46.483L43.2625 13.9822C42.8101 15.1829 42.4435 15.7762 41.3128 15.7762H39.3771V14.0905H40.4795C40.9878 14.0905 41.1578 13.9639 41.3552 13.4689L41.5386 12.989L38.7422 5.68555Z" fill="white"/>
</g>
<defs>
<clipPath id="clip0_2116_75526">
<rect width="45.6" height="16" fill="white" transform="translate(0.699219)"/>
</clipPath>
</defs>
</svg>
