<svg width="29" height="28" viewBox="0 0 29 28" fill="none" xmlns="http://www.w3.org/2000/svg">
<g clip-path="url(#clip0_2258_74021)">
<path d="M15.654 17.6166C15.7738 17.6166 15.8887 17.569 15.9734 17.4843C16.0581 17.3996 16.1057 17.2847 16.1057 17.1649V11.7447C16.1057 11.6249 16.0581 11.5099 15.9734 11.4252C15.8887 11.3406 15.7738 11.293 15.654 11.293H12.9439C12.6944 11.293 12.4922 11.4952 12.4922 11.7447V17.1649C12.4922 17.2847 12.5398 17.3996 12.6245 17.4843C12.7092 17.569 12.8241 17.6166 12.9439 17.6166H15.654ZM13.3956 12.1963H15.2023V16.7132H13.3956V12.1963Z" fill="#3B404A"/>
<path d="M10.2321 17.6174C10.3519 17.6174 10.4668 17.5698 10.5515 17.4851C10.6362 17.4004 10.6838 17.2855 10.6838 17.1657V14.4556C10.6838 14.3358 10.6362 14.2209 10.5515 14.1362C10.4668 14.0515 10.3519 14.0039 10.2321 14.0039H7.522C7.27256 14.0039 7.07031 14.2062 7.07031 14.4556V17.1657C7.07031 17.2855 7.1179 17.4004 7.20259 17.4851C7.28728 17.5698 7.40222 17.6174 7.522 17.6174H10.2321ZM7.97369 14.9073H9.78043V16.714H7.97369V14.9073Z" fill="#3B404A"/>
<path d="M21.5232 9.93663H22.4266C22.603 9.93663 22.7633 9.83399 22.8369 9.67368C22.9105 9.51337 22.8843 9.32484 22.7694 9.19094L20.0592 6.02913C19.9709 5.93335 19.8467 5.87891 19.7164 5.87891C19.5862 5.87891 19.462 5.93335 19.3736 6.02913L16.6635 9.19094C16.5486 9.32484 16.5224 9.51337 16.596 9.67368C16.6696 9.83399 16.8299 9.93663 17.0063 9.93663H17.9097V15.8086H18.8131V9.48495C18.8131 9.36517 18.7655 9.25023 18.6808 9.16554C18.5961 9.08085 18.4812 9.03326 18.3614 9.03326H17.9883L19.7165 7.01739L21.4446 9.03326H21.0715C20.8221 9.03326 20.6198 9.23551 20.6198 9.48495V15.8086H21.5232L21.5232 9.93663Z" fill="#3B404A"/>
<path d="M14.7499 0C11.8766 0.000604951 9.07305 0.884842 6.71964 2.53327C4.36622 4.18154 2.57682 6.51394 1.5942 9.21358C0.61159 11.9136 0.483518 14.8506 1.227 17.6258C1.97066 20.4013 3.55017 22.8809 5.75094 24.7279C7.95192 26.5749 10.6677 27.7001 13.5298 27.951C16.3921 28.2018 19.2623 27.5661 21.751 26.13L21.2993 25.3476C18.4977 26.9777 15.1935 27.5175 12.0188 26.864C8.8441 26.2104 6.02144 24.4095 4.09183 21.8055C2.16166 19.2016 1.25953 15.9774 1.55754 12.7501C1.85577 9.52254 3.33321 6.51833 5.70763 4.31203C8.08201 2.10563 11.1867 0.852217 14.427 0.791304C17.6676 0.730205 20.8172 1.86627 23.2728 3.98176C25.7285 6.09741 27.3178 9.04406 27.737 12.2582C28.1563 15.4723 27.3759 18.7279 25.5452 21.4024L24.1847 20.2699C24.0584 20.1651 23.8854 20.1369 23.7324 20.1963C23.5795 20.2556 23.4708 20.3934 23.4485 20.5559L22.8726 24.7784C22.8518 24.9322 22.9115 25.0861 23.0307 25.1855C23.15 25.2851 23.312 25.3163 23.4598 25.2684L27.5074 23.9355C27.6631 23.8839 27.7788 23.752 27.8093 23.5909C27.8399 23.4296 27.7806 23.2644 27.6546 23.1596L26.2404 21.9825L26.2402 21.9823C28.1984 19.171 29.0566 15.7387 28.6521 12.3369C28.2478 8.93493 26.6089 5.79956 24.0463 3.52563C21.4838 1.25171 18.1759 -0.00278784 14.7498 0.000257817L14.7499 0ZM26.4524 23.3323L23.8657 24.1843L24.2351 21.4855L26.4524 23.3323Z" fill="#3B404A"/>
<path d="M5.71484 18.5195H22.8789V19.4229H5.71484V18.5195Z" fill="#3B404A"/>
<path d="M17.9102 16.7109H18.8135V17.6143H17.9102V16.7109Z" fill="#3B404A"/>
<path d="M20.6211 16.7109H21.5245V17.6143H20.6211V16.7109Z" fill="#3B404A"/>
<path d="M19.2656 16.7109H20.169V17.6143H19.2656V16.7109Z" fill="#3B404A"/>
</g>
<defs>
<clipPath id="clip0_2258_74021">
<rect width="28" height="28" fill="white" transform="translate(0.75)"/>
</clipPath>
</defs>
</svg>
