<svg width="28" height="28" viewBox="0 0 28 28" fill="none" xmlns="http://www.w3.org/2000/svg">
<g clip-path="url(#clip0_2258_75745)">
<path fill-rule="evenodd" clip-rule="evenodd" d="M3.03955 19.1696L8.83273 24.9628C9.0211 25.1509 9.32713 25.1509 9.5155 24.9628C9.70365 24.7744 9.70365 24.4684 9.5155 24.28L3.72232 18.4868C3.53395 18.2987 3.22792 18.2987 3.03955 18.4868C2.8514 18.6752 2.8514 18.9812 3.03955 19.1696Z" fill="#3B404A"/>
<path fill-rule="evenodd" clip-rule="evenodd" d="M19.1957 2.89659L18.4203 3.67243C17.0623 5.03041 15.22 5.79318 13.2997 5.79318H9.17486C8.37551 5.79318 7.72656 6.44213 7.72656 7.24147C7.72656 8.04082 8.37551 8.68977 9.17486 8.68977H13.2997C15.9885 8.68977 18.567 7.62189 20.4684 5.72035L21.2442 4.94489V5.31041C21.2442 6.10976 21.8931 6.75871 22.6925 6.75871C23.4918 6.75871 24.1408 6.10976 24.1408 5.31041V1.44829C24.1408 0.648284 23.4925 0 22.6925 0H18.8304C18.031 0 17.3821 0.648946 17.3821 1.44829C17.3821 2.24764 18.031 2.89659 18.8304 2.89659H19.1957ZM20.7028 2.75521C20.841 2.61706 20.8819 2.40952 20.8072 2.22891C20.7328 2.04895 20.5565 1.93106 20.3615 1.93106H18.8302C18.5638 1.93106 18.3474 1.71468 18.3474 1.44829C18.3474 1.18191 18.5638 0.96553 18.8302 0.96553H22.6923C22.9587 0.96553 23.1751 1.18191 23.1751 1.44829V5.31041C23.1751 5.5768 22.9587 5.79318 22.6923 5.79318C22.4259 5.79318 22.2095 5.5768 22.2095 5.31041V3.77914C22.2095 3.58409 22.0917 3.4078 21.9117 3.33345C21.7311 3.25866 21.5235 3.29961 21.3854 3.43776L19.7856 5.03756C18.0655 6.75785 15.7323 7.72421 13.3 7.72421H9.17513C8.90875 7.72421 8.69237 7.50783 8.69237 7.24145C8.69237 6.97507 8.90875 6.75868 9.17513 6.75868H13.3C15.4767 6.75868 17.564 5.89401 19.1031 4.35501L20.7029 2.75521H20.7028Z" fill="#3B404A"/>
<path fill-rule="evenodd" clip-rule="evenodd" d="M19.3105 14.0006V9.17293C19.3105 8.78866 19.4631 8.42031 19.7349 8.14897C20.0062 7.8772 20.3746 7.72461 20.7589 7.72461H22.6899C23.0742 7.72461 23.4425 7.8772 23.7139 8.14897C23.9857 8.42031 24.1382 8.78865 24.1382 9.17293V12.0691C25.0835 11.3589 26.4333 11.4337 27.2936 12.2934C28.2355 13.2359 28.2355 14.7652 27.2936 15.7077L21.5005 21.5009C21.0477 21.9533 20.4334 22.2076 19.7934 22.2076H12.8691C12.4849 22.2076 12.1165 22.3602 11.8452 22.632L11.5034 22.9733L12.1275 23.5975C12.6932 24.1628 12.6932 25.08 12.1275 25.6453L10.1964 27.5764C9.63111 28.1421 8.71385 28.1421 8.14855 27.5764L0.424309 19.8521C-0.141436 19.2868 -0.141436 18.3696 0.424309 17.8043L2.35537 15.8732C2.92067 15.3075 3.83793 15.3075 4.40323 15.8732L4.73384 16.2038L7.72417 13.6409V11.104C7.72417 10.304 8.37245 9.65572 9.17246 9.65572H11.1035C11.9035 9.65572 12.5518 10.304 12.5518 11.104V12.7825C12.7391 12.8459 12.9221 12.9221 13.1003 13.0109L13.5173 13.2196V11.104C13.5173 10.304 14.1656 9.65571 14.9656 9.65571H16.8967C17.6967 9.65571 18.345 10.304 18.345 11.104V13.5665C18.6946 13.6381 19.0243 13.7857 19.3105 14.0006L19.3105 14.0006ZM1.10672 18.4868L3.03778 16.5558C3.22614 16.367 3.53218 16.367 3.72055 16.5558L11.4448 24.28C11.6336 24.4684 11.6336 24.7744 11.4448 24.9628L9.51373 26.8938C9.32536 27.0826 9.01933 27.0826 8.83096 26.8938L1.10672 19.1696C0.917921 18.9812 0.917921 18.6752 1.10672 18.4868ZM10.8205 22.2905L5.41894 16.8885L8.40193 14.3318C9.01463 13.8066 9.79417 13.5182 10.6009 13.5182H11.1576C11.6819 13.5182 12.1994 13.6404 12.6686 13.8744C12.913 13.9966 13.1707 14.1255 13.3768 14.2283C13.7119 14.396 14.0811 14.4833 14.4559 14.4833H17.8622C18.2465 14.4833 18.6148 14.6359 18.8862 14.9077C19.1579 15.179 19.3105 15.5473 19.3105 15.9316C19.3105 16.7316 18.6622 17.3799 17.8627 17.3799H12.0689C11.8025 17.3799 11.5862 17.5963 11.5862 17.8627C11.5862 18.1291 11.8025 18.3454 12.0689 18.3454H18.9932C19.1212 18.3454 19.2442 18.2948 19.3345 18.2041L24.5624 12.9766C25.1273 12.4113 26.0454 12.4113 26.6103 12.9766C27.1756 13.5415 27.1756 14.4596 26.6103 15.0245L20.8171 20.8177C20.5458 21.0894 20.1774 21.242 19.7931 21.242H12.8689C12.2286 21.242 11.6146 21.4963 11.1618 21.9487L10.8205 22.2905ZM23.1727 13.0005L20.2761 15.897V9.17254C20.2761 9.04452 20.3267 8.92146 20.4175 8.83116C20.5078 8.74042 20.6308 8.68977 20.7588 8.68977H22.6899C22.8179 8.68977 22.941 8.74042 23.0313 8.83116C23.122 8.92146 23.1727 9.04452 23.1727 9.17254V13.0005ZM17.3795 13.5175H14.4829V11.1037C14.4829 10.8373 14.6993 10.6209 14.9657 10.6209H16.8967C17.1631 10.6209 17.3795 10.8373 17.3795 11.1037V13.5175ZM11.5863 12.5737V11.1037C11.5863 10.8373 11.3699 10.6209 11.1035 10.6209H9.17248C8.9061 10.6209 8.68972 10.8373 8.68972 11.1037V12.9957C9.28067 12.7061 9.9337 12.5524 10.601 12.5524H11.1577C11.301 12.5524 11.4443 12.5597 11.5863 12.5737L11.5863 12.5737Z" fill="#3B404A"/>
</g>
<defs>
<clipPath id="clip0_2258_75745">
<rect width="28" height="28" fill="white"/>
</clipPath>
</defs>
</svg>
