<svg width="28" height="28" viewBox="0 0 28 28" fill="none" xmlns="http://www.w3.org/2000/svg">
<g clip-path="url(#clip0_2258_75723)">
<path d="M17.4685 7.75295C17.5449 7.64471 17.6055 7.52622 17.6483 7.40089C17.8404 7.43325 18.0236 7.5064 18.1849 7.61554C18.5097 7.83498 18.8904 7.95666 19.2821 7.96669C19.4058 7.96623 19.5291 7.95484 19.6508 7.93296C20.1633 7.84546 20.6201 7.55789 20.9205 7.13361C21.0814 6.87999 21.3416 6.7059 21.6371 6.65372C21.9329 6.60177 22.2369 6.67628 22.4745 6.85971C22.9022 7.15571 23.4297 7.26964 23.9413 7.17645L23.7788 6.25723C23.4833 6.30941 23.1793 6.23467 22.9417 6.05147C22.0502 5.44147 20.8348 5.65589 20.2057 6.53386C20.0448 6.78748 19.7846 6.96157 19.4888 7.01375C19.3541 7.04086 19.2149 7.03745 19.0814 7.00395C19.3575 6.93103 19.613 6.79545 19.8281 6.60769C20.2282 6.27569 20.48 5.79808 20.5281 5.28037C20.5406 4.98027 20.6789 4.69954 20.9093 4.50676C21.1383 4.31171 21.4396 4.22421 21.7372 4.26591C22.256 4.31308 22.7717 4.14719 23.1656 3.80676L22.5643 3.09217C22.3317 3.28016 22.0334 3.36675 21.7362 3.33257C20.6593 3.25031 19.7137 4.04351 19.6077 5.11859C19.5954 5.41823 19.4573 5.69896 19.2277 5.89196C18.9977 6.08474 18.6974 6.17224 18.4 6.13259C18.1088 6.11003 17.816 6.149 17.541 6.24743C17.4125 6.02458 17.2249 5.84138 16.9991 5.7181L19.0857 1.54997C19.1582 1.40482 19.1502 1.23255 19.0645 1.09469C18.9788 0.957063 18.8278 0.873664 18.6657 0.874576C18.3369 0.877538 18.0213 0.746059 17.7921 0.510673C16.9681 -0.248349 15.7001 -0.248349 14.8763 0.510673C14.6448 0.744008 14.3297 0.875031 14.0011 0.875031C13.6723 0.875031 13.3574 0.744008 13.1259 0.510673C12.3012 -0.247894 11.0329 -0.247894 10.2083 0.510673C9.97811 0.746287 9.6616 0.877766 9.33234 0.874576C9.17055 0.874576 9.02016 0.958203 8.93517 1.09583C8.84994 1.23324 8.8422 1.40528 8.91466 1.54997L10.9987 5.7181C10.6455 5.90655 10.391 6.23855 10.301 6.62865C10.211 7.01876 10.2942 7.42869 10.5293 7.75295C6.25045 8.9023 3.27337 12.7774 3.26562 17.208V25.6081C3.26699 26.8962 4.31085 27.9398 5.59898 27.9414H22.3991C23.687 27.9398 24.7309 26.8962 24.7325 25.6081V17.208C24.7245 12.7774 21.7474 8.9023 17.4685 7.75295ZM10.7911 1.23916C11.0229 1.00583 11.338 0.874576 11.6671 0.874576C11.9959 0.874576 12.3112 1.00583 12.543 1.23916C13.3672 1.9975 14.6352 1.9975 15.4597 1.23916C15.6909 1.00583 16.0056 0.874576 16.3342 0.874576C16.6626 0.874576 16.9775 1.00583 17.2088 1.23916C17.4316 1.43581 17.6882 1.59099 17.9662 1.69694L16.0439 5.54128H11.9539L10.0323 1.6974C10.3106 1.59122 10.5676 1.43604 10.7911 1.23916ZM11.6657 7.40796C11.4077 7.40796 11.199 7.199 11.199 6.94129C11.199 6.68357 11.4077 6.47462 11.6657 6.47462H16.3324C16.5901 6.47462 16.7991 6.68357 16.7991 6.94129C16.7991 7.199 16.5901 7.40796 16.3324 7.40796H11.6657ZM23.7991 25.6081C23.7991 26.3812 23.1723 27.0081 22.3991 27.0081H5.59898C4.8256 27.0081 4.19897 26.3812 4.19897 25.6081V17.208C4.20421 12.3132 8.1709 8.34677 13.0657 8.3413H14.9324C19.8269 8.34677 23.7936 12.3132 23.7991 17.208V25.6081Z" fill="#3B404A"/>
<path d="M10.8672 20.6118L16.4675 15.0117L17.1274 15.6716L11.5273 21.2719L10.8672 20.6118Z" fill="#3B404A"/>
<path d="M15.8688 18.6074C15.0954 18.6074 14.4688 19.2343 14.4688 20.0074C14.4688 20.7806 15.0954 21.4074 15.8688 21.4074C16.6419 21.4074 17.2688 20.7806 17.2688 20.0074C17.2688 19.2343 16.6419 18.6074 15.8688 18.6074ZM15.8688 20.4741C15.6108 20.4741 15.4021 20.2651 15.4021 20.0074C15.4021 19.7497 15.6108 19.5408 15.8688 19.5408C16.1265 19.5408 16.3354 19.7497 16.3354 20.0074C16.3354 20.2651 16.1265 20.4741 15.8688 20.4741Z" fill="#3B404A"/>
<path d="M12.1344 17.675C12.9075 17.675 13.5344 17.0482 13.5344 16.275C13.5344 15.5019 12.9075 14.875 12.1344 14.875C11.361 14.875 10.7344 15.5019 10.7344 16.275C10.7344 17.0482 11.361 17.675 12.1344 17.675ZM12.1344 15.8083C12.3921 15.8083 12.6011 16.0173 12.6011 16.275C12.6011 16.5327 12.3921 16.7417 12.1344 16.7417C11.8764 16.7417 11.6677 16.5327 11.6677 16.275C11.6677 16.0173 11.8764 15.8083 12.1344 15.8083Z" fill="#3B404A"/>
<path d="M14.0021 11.6074C10.3936 11.6074 7.46875 14.5325 7.46875 18.1408C7.46875 21.7491 10.3936 24.6742 14.0021 24.6742C17.6104 24.6742 20.5355 21.7491 20.5355 18.1408C20.5316 14.5341 17.6088 11.6113 14.0021 11.6074ZM14.0021 23.7408C10.9093 23.7408 8.40209 21.2336 8.40209 18.1408C8.40209 15.048 10.9093 12.5408 14.0021 12.5408C17.0947 12.5408 19.6022 15.048 19.6022 18.1408C19.5988 21.2323 17.0934 23.7374 14.0021 23.7408Z" fill="#3B404A"/>
</g>
<defs>
<clipPath id="clip0_2258_75723">
<rect width="28" height="28" fill="white"/>
</clipPath>
</defs>
</svg>
