<svg width="24" height="24" viewBox="0 0 24 24" fill="none" xmlns="http://www.w3.org/2000/svg">
<path d="M12 2C6.47768 2 2 6.47768 2 12C2 17.5223 6.47768 22 12 22C17.5223 22 22 17.5223 22 12C22 6.47768 17.5223 2 12 2ZM16.8058 9.53795C16.8125 9.64286 16.8125 9.75223 16.8125 9.85938C16.8125 13.1362 14.317 16.9107 9.7567 16.9107C8.35045 16.9107 7.04688 16.5022 5.94866 15.7991C6.14955 15.8214 6.34152 15.8304 6.54688 15.8304C7.70759 15.8304 8.77455 15.4375 9.625 14.7723C8.53571 14.75 7.62054 14.0357 7.30804 13.0536C7.68973 13.1094 8.03348 13.1094 8.42634 13.0089C7.86546 12.895 7.36133 12.5904 6.99959 12.1468C6.63785 11.7033 6.44082 11.1482 6.44196 10.5759V10.5446C6.77009 10.7299 7.15625 10.8438 7.56027 10.8594C7.22063 10.633 6.94209 10.3264 6.74936 9.96658C6.55662 9.60681 6.45563 9.20503 6.45536 8.79688C6.45536 8.33482 6.57589 7.91295 6.79241 7.54688C7.41496 8.31325 8.19181 8.94005 9.07247 9.38653C9.95312 9.83301 10.9179 10.0892 11.904 10.1384C11.5536 8.45313 12.8125 7.08929 14.3259 7.08929C15.0402 7.08929 15.683 7.38839 16.1362 7.87054C16.6964 7.76562 17.2321 7.5558 17.7098 7.27455C17.5246 7.84821 17.1362 8.33259 16.6205 8.63839C17.1205 8.58482 17.6027 8.44643 18.0491 8.25223C17.7121 8.74777 17.2902 9.1875 16.8058 9.53795Z" fill="white"/>
</svg>
